<svg width="208" height="42" viewBox="0 0 208 42" fill="none" xmlns="http://www.w3.org/2000/svg">
<path d="M84.1273 32.5932C76.1784 38.555 64.9169 41.5356 54.9809 41.5356C41.0702 41.5356 28.8152 36.5673 19.5414 27.9563C18.8792 27.2941 19.5414 26.2999 20.2035 26.9627C30.4708 32.9246 42.7259 36.2365 55.6431 36.2365C64.2548 36.2365 73.86 34.5802 82.8024 30.6061C84.1273 29.9433 85.1215 31.5996 84.1273 32.5932Z" fill="#F7981D"/>
<path d="M84.127 30.6062C76.1781 36.2367 64.9165 39.2179 55.3113 39.2179C42.3941 39.2179 30.8019 34.581 21.8588 27.2943C21.5274 26.9629 20.8652 26.9629 20.5338 26.6321C19.5403 25.97 18.8775 26.9635 19.8717 27.6257C29.1455 36.2373 41.732 41.205 55.3113 41.205C65.2479 41.205 76.5088 38.2244 84.4577 32.2626C84.7897 31.9312 84.7897 30.937 84.127 30.6062Z" fill="#E86E00"/>
<path d="M87.1086 28.6185C86.1151 27.2936 80.4846 27.9564 77.8348 28.2871C77.1727 28.2871 76.8413 27.625 77.5034 27.2936C82.1403 23.9816 89.427 24.9752 90.0892 25.9687C91.0827 26.9622 89.7578 34.5804 85.7837 37.8924C85.1215 38.5545 84.4587 38.2238 84.7901 37.561C86.1151 35.2432 88.1021 29.9435 87.1086 28.6185Z" fill="#F7981D"/>
<path d="M90.7519 26.3C91.7455 27.2936 90.4205 34.9117 86.4464 38.2237C85.7843 38.8858 85.1215 38.5551 85.4529 37.8923C86.4464 35.5738 88.4335 30.2741 87.44 28.9499" fill="#E86E00"/>
<path d="M78.1653 5.10267V2.12209C78.1653 1.79069 78.4967 1.45996 78.8274 1.45996H92.7381C93.0695 1.45996 93.4002 1.79136 93.4002 2.12209V4.77195C93.4002 5.10335 93.0689 5.76547 92.4067 6.759L85.12 17.0263C87.7698 17.0263 90.4197 17.3577 93.0689 18.6827C93.731 19.0141 93.731 19.3448 93.731 20.0076V23.3196C93.731 23.651 93.3996 24.3131 92.7374 23.9817C88.4319 21.6632 82.8008 21.6632 78.1639 23.9817C77.8325 24.3131 77.1704 23.6503 77.1704 23.3196V20.339C77.1704 20.0076 77.1704 19.0141 77.8325 18.3519L86.1128 6.42827H78.8261C78.4967 5.76547 78.1653 5.43407 78.1653 5.10267Z" fill="black"/>
<path d="M28.1527 24.313H23.8472C23.5158 24.313 23.1851 23.9817 23.1851 23.6509V2.12205C23.1851 1.79065 23.5165 1.45992 23.8472 1.45992H27.822C28.1534 1.45992 28.4841 1.79132 28.4841 2.12205V4.7719C29.4776 2.12205 31.4647 0.797119 34.1145 0.797119C36.7644 0.797119 38.42 2.12205 39.4142 4.7719C40.4078 2.12205 42.7262 0.797119 45.0447 0.797119C46.701 0.797119 48.688 1.45925 50.013 3.11557C51.3379 4.7719 51.0065 7.42108 51.0065 9.73954V23.3188C51.0065 23.6502 50.6751 23.981 50.3444 23.981H46.0389C45.7075 23.981 45.3767 23.6496 45.3767 23.3188V12.058C45.3767 11.0645 45.3767 8.74601 45.3767 8.08321C45.0453 6.75829 44.0518 6.09615 43.0583 6.09615C42.0648 6.09615 41.0712 6.75828 40.4084 7.75248C40.077 8.746 40.077 10.7331 40.077 11.7273V22.9881C40.077 23.3195 39.7456 23.6503 39.4149 23.6503H35.1094C34.778 23.6503 34.4473 23.3189 34.4473 22.9881V11.7273C34.4473 9.4088 34.7787 5.76543 31.7974 5.76543C28.8162 5.76543 28.8168 9.0774 28.8168 11.7273V22.9881C28.8148 23.9817 28.4841 24.313 28.1527 24.313Z" fill="black"/>
<path d="M105.325 0.797119C111.618 0.797119 114.93 6.09683 114.93 13.0522C114.93 19.6762 111.286 24.9759 105.325 24.9759C99.3628 24.9759 96.0508 19.6762 96.0508 13.0522C96.0508 6.09616 99.3634 0.797119 105.325 0.797119ZM105.325 5.10263C102.344 5.10263 102.013 9.40813 102.013 12.058C102.013 14.7078 102.013 20.3383 105.325 20.3383C108.637 20.3383 108.637 15.7014 108.637 13.0515C108.637 11.3952 108.637 9.07674 107.974 7.42109C107.644 5.76543 106.65 5.10263 105.325 5.10263Z" fill="black"/>
<path d="M123.21 24.3129H118.905C118.573 24.3129 118.243 23.9816 118.243 23.6508V2.12194C118.243 1.79054 118.574 1.45982 118.905 1.45982H122.88C123.211 1.45982 123.542 1.79122 123.542 2.12194V5.43392C124.867 2.45334 126.192 1.12842 129.172 1.12842C131.159 1.12842 132.816 1.79054 134.14 3.77827C135.134 5.4346 135.134 8.41518 135.134 10.4022V23.9822C135.134 24.3136 134.803 24.6443 134.472 24.6443H130.166C129.835 24.6443 129.504 24.3129 129.504 23.9822V12.39C129.504 10.0715 129.836 6.75952 126.854 6.75952C125.861 6.75952 124.867 7.42165 124.536 8.41585C123.874 9.74077 123.874 11.0657 123.874 12.3906V23.9829C123.873 23.9816 123.542 24.3129 123.21 24.3129Z" fill="black"/>
<path d="M140.104 24.6443C141.202 24.6443 142.091 23.7546 142.091 22.6572C142.091 21.5598 141.202 20.6702 140.104 20.6702C139.007 20.6702 138.117 21.5598 138.117 22.6572C138.117 23.7546 139.007 24.6443 140.104 24.6443Z" fill="#E86E00"/>
<path d="M74.8532 20.3383C73.8597 19.3448 73.1969 18.3513 73.1969 16.3635V9.73958C73.1969 6.759 73.1969 4.44054 71.2098 2.45281C69.5535 1.12789 66.9043 0.465088 64.9166 0.465088C60.9425 0.465088 56.6363 1.79001 55.6428 6.75832C55.6428 7.42044 55.9742 7.75185 56.3049 7.75185L60.2797 8.41464C60.6111 8.41464 60.9425 8.08325 60.9425 7.75185C61.2739 5.76479 62.5988 5.10199 64.2545 5.10199C65.248 5.10199 65.9108 5.43339 66.5729 6.09552C67.235 6.75832 67.235 8.08257 67.235 9.07677V9.7389C64.5852 9.7389 61.6046 10.0703 59.2862 11.0638C56.9677 12.3887 54.98 14.7072 54.98 18.0192C54.98 22.3254 57.6298 24.6431 61.2732 24.6431C64.2545 24.6431 65.9101 23.981 68.2286 21.6626C68.8914 22.6561 69.2221 23.3189 70.547 24.3124C70.8784 24.3124 71.2092 24.3124 71.5406 24.3124C72.2034 23.3189 73.859 21.994 74.8525 21.3312C75.1846 21.3318 75.1846 20.6697 74.8532 20.3383ZM67.163 14.0653C67.163 15.7216 67.163 17.0465 66.5008 18.3708C65.8387 19.6957 64.8445 20.3585 63.5196 20.3585C61.8633 20.3585 60.8697 19.0336 60.8697 17.3773C60.8697 13.7339 64.1817 13.0718 67.163 13.0718V14.0653Z" fill="black"/>
<path d="M19.8725 20.3383C18.879 19.3448 18.2162 18.3513 18.2162 16.3635V9.73958C18.2162 6.759 18.2162 4.44054 16.2292 2.45281C14.5728 1.12789 11.9237 0.465088 9.93594 0.465088C5.96183 0.465088 1.65565 1.79001 0.662126 6.75832C0.662126 7.42045 0.993526 7.75185 1.32425 7.75185L5.29903 8.41465C5.63043 8.41465 5.96116 8.08325 5.96116 7.75185C6.29256 5.7648 7.61749 5.10199 9.27314 5.10199C10.2667 5.10199 10.9295 5.4334 11.5916 6.09552C12.2537 6.75832 12.2537 8.08257 12.2537 9.07677V9.7389C9.60386 9.7389 6.62328 10.0703 4.30483 11.0638C1.98705 12.3894 0 14.7079 0 18.0199C0 22.326 2.64985 24.6438 6.29323 24.6438C9.27449 24.6438 10.9301 23.9817 13.2486 21.6632C13.9107 22.6568 14.2421 23.3196 15.567 24.3131C15.8984 24.3131 16.2292 24.3131 16.5606 24.3131C17.2227 23.3196 18.879 21.9946 19.8725 21.3318C20.2039 21.3318 20.2039 20.6697 19.8725 20.3383ZM11.8179 14.0653C11.8179 15.7216 11.8179 17.0465 11.1558 18.3708C10.493 19.6957 9.49946 20.3585 8.17453 20.3585C6.51821 20.3585 5.52468 19.0336 5.52468 17.3773C5.52468 13.7339 8.83666 13.0718 11.8179 13.0718V14.0653Z" fill="black"/>
<path d="M84.1273 32.5932C76.1784 38.555 64.9169 41.5356 54.9809 41.5356C41.0702 41.5356 28.8152 36.5673 19.5414 27.9563C18.8792 27.2941 19.5414 26.2999 20.2035 26.9627C30.4708 32.9246 42.7259 36.2365 55.6431 36.2365C64.2548 36.2365 73.86 34.5802 82.8024 30.6061C84.1273 29.9433 85.1215 31.5996 84.1273 32.5932Z" fill="#F7981D"/>
<path d="M182.497 24.3128C182.166 24.3128 181.835 23.9814 181.835 23.6507V2.1218C181.835 1.7904 182.166 1.45968 182.497 1.45968H183.822C184.153 1.45968 184.484 1.79108 184.484 2.1218V5.10239C185.478 2.78393 187.465 0.796875 190.115 0.796875C192.764 0.796875 194.751 2.78393 195.745 5.76518C196.739 2.7846 199.057 0.796875 202.038 0.796875C204.025 0.796875 206.013 2.1218 207.007 4.10885C208 6.09591 208 8.41436 208 10.7328V23.65C208 23.9814 207.669 24.3121 207.338 24.3121H205.351C205.019 24.3121 204.689 23.9807 204.689 23.65V10.7328C204.689 9.07649 204.689 7.42083 204.027 6.09591C203.364 4.77098 202.04 3.77745 200.715 3.77745C199.39 3.77745 198.065 4.77098 197.071 6.42731C196.078 8.41436 196.078 10.0707 196.078 12.0577V23.65C196.078 23.9814 195.746 24.3121 195.416 24.3121H193.429C193.097 24.3121 192.766 23.9807 192.766 23.65V9.73929C192.766 8.41437 192.766 7.08944 192.104 5.76451C191.442 4.43959 190.117 3.77746 188.792 3.44606C187.467 3.44606 186.142 4.43959 185.48 5.76451C184.487 7.42084 184.155 9.07649 184.155 11.0642V23.3193C184.155 23.6507 183.824 23.9814 183.493 23.9814H182.5V24.3128H182.497Z" fill="#F7981D"/>
<path d="M169.911 24.6443C163.95 24.6443 161.3 18.6825 161.3 12.3892C161.3 6.09601 164.28 0.465576 170.574 0.465576C176.535 0.465576 179.185 6.42741 179.185 12.3892C179.185 19.0139 176.205 24.6443 169.911 24.6443ZM170.243 21.6631C172.23 21.6631 173.886 20.3381 174.548 18.3511C175.211 16.6947 175.542 14.3763 175.542 12.3892C175.542 10.0708 175.211 8.08373 174.217 6.09601C173.223 4.43968 171.899 3.44616 169.911 3.44616C167.924 3.44616 166.268 4.77108 165.606 6.75813C164.944 8.41446 164.612 10.7329 164.612 12.3886C164.612 14.3756 164.944 17.0255 165.606 18.6818C166.93 20.6695 168.587 21.6631 170.243 21.6631Z" fill="#F7981D"/>
<path d="M151.032 21.6631C153.682 21.6631 155.007 19.3447 155.669 16.6948C155.669 16.3634 156.001 16.0327 156.331 16.0327H157.988C158.319 16.0327 158.65 16.3641 158.65 16.6948C157.988 21.3317 155.006 24.6437 151.032 24.6437C145.07 24.6437 142.42 18.6819 142.42 12.72C142.42 6.75822 145.07 0.796387 151.032 0.796387C155.006 0.796387 157.987 4.10836 158.65 8.74527C158.65 9.07667 158.318 9.4074 157.988 9.4074H156.001C155.669 9.4074 155.338 9.076 155.338 8.74527C155.007 6.09542 153.351 4.10837 150.702 3.77697C146.727 3.77697 145.402 8.74528 145.402 12.7194C146.064 16.3641 147.058 21.6631 151.032 21.6631Z" fill="#F7981D"/>
<path d="M129.503 0.796875C126.523 0.796875 124.866 2.1218 123.873 5.10238V1.7904C123.873 1.459 123.541 1.12828 123.211 1.12828H119.236C118.904 1.12828 118.574 1.45967 118.574 1.7904V8.41435C124.204 6.4273 129.172 4.43958 133.478 2.12113C132.153 1.12828 130.828 0.796875 129.503 0.796875Z" fill="#545E60"/>
<path d="M105.325 0.796875C99.3628 0.796875 96.0508 6.09659 96.0508 12.7205C96.0508 13.3827 96.0508 13.7141 96.0508 14.3769C98.0378 14.0455 100.026 13.3834 102.013 13.052C102.013 12.7206 102.013 12.3898 102.013 12.0584C102.013 9.40857 102.344 5.10306 105.325 5.10306C106.65 5.10306 107.643 5.76518 107.974 7.09011C108.306 8.41503 108.637 9.73996 108.637 11.0649C110.624 10.4028 112.611 10.0714 114.598 9.40856C113.605 4.44025 110.624 0.796875 105.325 0.796875Z" fill="#545E60"/>
<path d="M92.7389 1.12842H78.8281C78.4967 1.12842 78.166 1.45981 78.166 1.79054V4.77112C78.166 5.10252 78.4974 5.43325 78.8281 5.43325H86.1149L78.4967 16.6941C81.1466 16.3627 83.4651 16.032 85.7835 15.7006L92.4075 6.09537C93.0696 5.10185 93.401 4.43905 93.401 4.10832V1.45847C93.7324 1.45914 93.0703 1.12842 92.7389 1.12842Z" fill="#545E60"/>
<path d="M71.2098 2.78393C69.5535 1.1276 66.9043 0.796875 64.9166 0.796875C60.9418 0.796875 56.6363 2.1218 55.6428 7.0901C55.6428 7.75223 55.9742 7.75223 56.3049 8.08363L60.2797 8.41504C60.6111 8.41504 60.9418 8.08363 60.9418 7.75291C61.2732 6.09658 62.5981 5.10305 64.2538 5.10305C65.2473 5.10305 66.2408 5.43446 66.5722 6.09658C67.2344 7.09011 67.2344 8.08364 67.2344 9.07716V9.73929C64.9159 10.0707 61.6039 10.0707 59.2855 11.0642C56.6356 12.0577 54.98 14.3762 54.98 18.0196C55.9735 18.0196 56.967 18.0196 57.6298 18.0196C58.6234 18.0196 59.9483 18.0196 60.9418 18.0196C60.9418 17.6882 60.9418 17.6882 60.9418 17.3574C60.9418 13.7141 64.2538 13.0519 67.235 13.0519V14.0455C67.235 15.3704 67.235 16.6953 66.5729 18.0202C68.8914 18.0202 70.8784 17.6888 73.1969 17.6888C73.1969 17.3574 73.1969 17.0267 73.1969 16.6953V10.0714C73.1976 7.09011 73.1976 4.44026 71.2098 2.78393Z" fill="#545E60"/>
<path d="M45.3756 0.796875C43.0571 0.796875 40.7387 2.12181 39.7451 4.77166C38.4202 2.12181 36.7646 0.796875 34.4454 0.796875C31.7956 0.796875 29.8085 2.12181 28.815 4.77166V2.1218C28.4836 1.45968 28.1529 1.12828 27.8215 1.12828H23.8467C23.5153 1.12828 23.1846 1.45967 23.1846 1.7904V14.7076C25.1716 15.039 26.828 15.3697 28.815 15.7011V11.7263C28.815 9.07649 28.815 5.76451 31.7956 5.76451C34.7762 5.76451 34.4454 9.40789 34.4454 11.7263V16.3632C36.4325 16.6946 38.4202 16.6946 40.0759 17.0254V11.7257C40.0759 10.4007 40.0759 8.74508 40.4073 7.75088C40.7387 6.75736 41.7322 6.09456 43.0571 6.09456C44.382 6.09456 45.3756 6.42596 45.3756 8.08161C45.707 9.07513 45.3756 11.0622 45.3756 12.0564V17.6868C47.3626 17.6868 49.3504 18.0182 51.006 18.0182V10.0693C51.006 7.75088 51.3374 5.10103 50.0125 3.44538C49.019 1.459 47.0319 0.796875 45.3756 0.796875Z" fill="#545E60"/>
<path d="M9.93592 0.465576C5.96114 0.465576 1.65564 1.79051 0.662109 6.75881C0.662109 7.42094 0.993509 7.42093 1.32424 7.75233L5.29902 8.08374C5.63042 8.08374 5.96114 7.75234 5.96114 7.42161C6.29254 5.76528 7.61747 4.77176 9.27312 4.77176C10.2666 4.77176 11.2602 5.10316 11.5916 5.76528C12.2537 6.75881 12.2537 7.75234 12.2537 8.74587V9.40799C10.2666 10.0701 7.2854 10.0701 4.96694 11.0643C9.27245 12.3892 13.5786 13.3828 18.2155 14.3763V10.0708C18.2155 7.42094 18.5469 4.77109 16.2285 2.78403C14.9042 1.12838 12.2544 0.465576 9.93592 0.465576Z" fill="#545E60"/>
</svg>
