<svg width="75" height="75" viewBox="0 0 100 100" fill="none" xmlns="http://www.w3.org/2000/svg">
    <path d="M27.6326 88.0681C30.0884 89.4941 32.6234 90.6824 35.3168 91.5538C37.3765 92.1875 39.5947 92.7421 41.5751 92.5836C46.0114 92.5836 45.9322 96.6238 44.8231 98.2874C44.0309 99.4757 43.2387 100.268 37.7726 98.525C30.6429 96.2277 18.364 92.346 7.82786 76.1061C-2.70827 59.8662 1.25268 38.6355 3.23316 34.1992C5.21363 29.763 9.17458 13.9192 39.2778 10.7504C69.381 7.58166 83.6404 43.2302 83.6404 43.2302L88.6312 52.578C88.6312 52.578 80.0756 51.9443 76.273 43.6263C72.4705 35.3083 68.668 31.9019 68.668 31.9019C68.668 31.9019 60.1916 22.2372 48.1503 21.2073C36.109 20.1775 26.0482 22.7917 15.9874 36.1797C5.9266 49.5677 9.09536 65.8868 12.2641 71.1945C15.3537 76.3437 17.1757 80.067 25.8898 86.8799C26.4443 87.276 26.9988 87.6721 27.6326 88.0681Z" fill="url(#paint0_linear)"/>
    <path d="M8.30311 25.3267C7.99852 25.7435 7.23928 25.3445 7.49118 24.8939C9.46142 21.3693 11.9817 17.7374 15.0367 15.0282C23.4339 7.58161 32.9402 0.451904 52.745 0.451904C72.5497 0.451904 89.2649 16.2165 93.1466 24.1384C97.8998 32.1395 103.92 44.1808 96.157 50.4391C88.3935 56.6974 78.7288 48.4586 77.6197 44.26C76.7712 41.0478 75.83 38.7166 75.4345 37.7986C75.3098 37.5089 75.1859 37.2298 75.0579 36.9415C74.0742 34.7276 69.2529 24.4841 62.4889 20.2566C57.6565 17.3255 54.567 15.5827 49.4178 14.0776C45.3776 12.8893 40.7829 12.0179 34.5246 12.3348C17.8886 13.1269 9.80827 23.267 8.30311 25.3267Z" fill="url(#paint1_linear)"/>
    <path d="M89.9779 50.8352H89.5026C83.7988 50.4391 79.3625 46.7158 77.7782 41.2497C75.2432 32.2187 69.5394 17.8801 49.497 12.2555C29.4546 6.63098 8.85765 15.2658 2.99545 35.1498C3.07467 34.8329 3.15389 34.5953 3.23311 34.2784C2.91623 35.1498 2.67857 36.0212 2.44092 36.8926C8.30312 17.0879 28.9001 8.3738 48.9425 13.9983C68.9848 19.6229 74.7678 34.0407 77.2236 42.9925C78.7288 48.4586 83.2443 52.2611 88.948 52.578H89.4234C94.4934 52.8949 98.6127 49.4092 99.6426 44.8145C98.0582 48.5378 94.3349 51.152 89.9779 50.8352Z" fill="url(#paint2_linear)"/>
    <defs>
        <linearGradient id="paint0_linear" x1="14.7902" y1="69.9409" x2="84.8232" y2="16.9676" gradientUnits="userSpaceOnUse">
            <stop stop-color="#9B3DB4"/>
            <stop offset="0.9993" stop-color="#00E6FF"/>
        </linearGradient>
        <linearGradient id="paint1_linear" x1="2.28825" y1="26.5873" x2="99.7076" y2="26.5873" gradientUnits="userSpaceOnUse">
            <stop stop-color="#FF9D00"/>
            <stop offset="0.9993" stop-color="#FF55E1"/>
        </linearGradient>
        <linearGradient id="paint2_linear" x1="8.08254" y1="18.8426" x2="98.794" y2="47.5479" gradientUnits="userSpaceOnUse">
            <stop stop-color="#8927B5"/>
            <stop offset="1" stop-color="#8786FC" stop-opacity="0"/>
        </linearGradient>
    </defs>
</svg>

