<svg width="192" height="62" viewBox="0 0 192 62" fill="none" xmlns="http://www.w3.org/2000/svg">
<path d="M2.16774 39.0515C3.71613 39.9806 6.8129 41.2193 9.6 40.9096C12.0774 40.9096 13.6258 39.6709 13.6258 37.8128C13.6258 36.2644 12.6968 35.0257 9.90968 33.4773C6.50323 31.6193 4.02581 28.8322 4.02581 25.1161C4.02581 18.6128 9.6 14.2773 17.3419 14.2773C20.7484 14.2773 23.5355 14.8967 25.0839 15.8257L22.9161 22.329C21.6774 21.7096 19.5097 21.0902 17.3419 21.0902C14.8645 21.0902 13.0065 22.329 13.0065 24.187C13.0065 25.7354 14.2452 26.6644 16.4129 27.9031C19.8194 30.0709 22.9161 32.858 22.9161 36.5741C22.9161 43.6967 17.0323 48.0322 8.98065 47.7225C5.26452 47.7225 1.85806 46.7935 0 45.5548L2.16774 39.0515Z" fill="#B4E52C"/>
<path d="M24.7744 46.4838L33.7551 0.0322266H42.7357L39.3293 18.6129V18.9226C41.8067 16.1355 44.9034 14.2774 48.9293 14.2774C53.5744 14.2774 56.3615 17.3742 56.3615 22.6387C56.3615 24.1871 56.0518 26.3548 55.7422 28.2129L52.3357 46.4838H43.3551L46.7615 28.5226C47.0712 27.2838 47.0712 26.0451 47.0712 24.8064C47.0712 22.9484 46.1422 21.4 44.2841 21.4C41.497 21.4 38.4002 24.8064 37.1615 30.6903L34.0647 46.1742H24.7744V46.4838Z" fill="#B4E52C"/>
<path d="M89.4968 26.9741C89.4968 38.1225 82.3742 47.7225 71.5355 47.7225C63.4839 47.7225 59.1484 42.1483 59.1484 35.0257C59.1484 23.8773 66.271 14.2773 77.4194 14.2773C85.471 14.2773 89.4968 20.4709 89.4968 26.9741ZM68.1291 35.0257C68.1291 38.4322 69.3678 40.9096 72.4646 40.9096C77.4194 40.9096 79.8968 32.2386 79.8968 26.6644C79.8968 23.8773 78.9678 21.0902 75.5613 21.0902C70.9162 21.3999 68.1291 29.7612 68.1291 35.0257Z" fill="#B4E52C"/>
<path d="M87.0195 58.8708L93.2131 26.6644C93.8324 22.9483 94.7615 18.6128 95.0711 15.516H103.123L102.503 18.6128C104.981 15.516 108.387 13.658 112.103 13.658C118.607 13.658 121.394 19.5418 121.394 25.4257C121.394 36.5741 114.271 47.4128 103.742 47.4128C102.194 47.7225 100.026 46.4838 99.0969 46.4838H98.7873L96.3098 58.8708H87.0195ZM100.026 39.6709C100.955 40.5999 102.194 40.9096 103.742 40.9096C108.697 40.9096 112.413 32.5483 112.413 26.6644C112.413 24.187 111.484 21.7096 108.697 21.7096C105.6 21.7096 102.503 25.4257 101.574 30.9999L100.026 39.6709Z" fill="#B4E52C"/>
<path d="M122.323 46.4838L128.516 15.5161H137.807L131.613 46.4838H122.323ZM134.09 12.4193C131.613 12.4193 129.755 9.94185 129.755 7.15476C129.755 4.05798 131.923 1.58057 135.02 1.58057C137.807 1.58057 139.665 4.05799 139.665 6.53541C139.355 9.94186 136.878 12.4193 134.09 12.4193Z" fill="#B4E52C"/>
<path d="M139.355 46.4838L144.31 21.7096H139.974L141.213 15.5161H145.549L145.858 13.658C146.478 9.9419 148.026 5.9161 151.123 3.129C153.6 0.961259 156.697 0.0322266 160.103 0.0322266C162.271 0.0322266 164.129 0.341906 165.058 0.651584L163.2 7.77416C162.271 7.46449 161.342 7.15481 160.413 7.15481C157.316 7.15481 155.458 10.2516 155.149 13.3484L154.219 15.5161H160.413L159.174 21.7096H152.981L148.026 46.4838H139.355Z" fill="#B4E52C"/>
<path d="M171.871 15.5161L173.419 29.7613C173.729 32.8581 174.038 34.0968 174.348 37.1935C174.968 34.0968 175.587 33.1677 177.135 29.7613L182.709 15.5161H192L180.851 39.0516C176.826 47.1032 173.109 52.9871 168.774 57.0129C165.677 60.1097 161.651 61.3484 159.793 61.9677L157.316 54.2258C158.864 53.6064 160.722 52.9871 162.58 51.7484C164.748 50.2 166.606 48.3419 167.535 46.1742C167.845 45.8645 167.845 45.5548 167.845 44.9355L162.271 15.5161H171.871Z" fill="#B4E52C"/>
<path d="M17.3419 14.2773C20.7484 14.2773 23.5355 14.8967 25.0839 15.8257L22.9161 22.329C21.6774 21.7096 19.5097 21.0902 17.3419 21.0902C14.8645 21.0902 13.0065 22.329 13.0065 24.187C13.0065 25.7354 14.2452 26.6644 16.4129 27.9031C19.8194 30.0709 22.9161 32.858 22.9161 36.5741C22.9161 43.6967 17.0323 48.0322 8.98065 47.7225C5.26452 47.7225 1.85806 46.7935 0 45.5548L2.16774 39.0515C3.71613 39.9806 6.8129 41.2193 9.6 40.9096C12.0774 40.9096 13.6258 39.6709 13.6258 37.8128C13.6258 36.2644 12.6968 35.0257 9.90968 33.4773C6.50323 31.6193 4.02581 28.8322 4.02581 25.1161" fill="#8BB43F"/>
<path d="M24.7744 46.4839L32.826 9.63225L42.7357 0.651611L39.3293 18.9226C41.8067 16.1355 44.9034 14.2774 48.9293 14.2774C53.5744 14.2774 56.3615 17.3742 56.3615 22.6387C56.3615 24.1871 56.0518 26.3548 55.7422 28.2129L52.3357 46.4839H43.3551L46.7615 28.5226C47.0712 27.2839 47.0712 26.0452 47.0712 24.8064C47.0712 22.9484 46.1422 21.4 44.2841 21.4C41.497 21.4 38.4002 24.8064 37.1615 30.6903L34.0647 46.1742H24.7744V46.4839Z" fill="#8BB43F"/>
<path d="M77.1097 14.2773C85.471 14.2773 89.4968 20.4709 89.4968 26.9741C89.4968 38.1225 82.3742 47.7225 71.5355 47.7225C63.4839 47.7225 59.1484 42.1483 59.1484 35.0257L77.1097 14.2773ZM68.1291 35.0257C68.1291 38.4322 69.3678 40.9096 72.4646 40.9096C77.4194 40.9096 79.8968 32.2386 79.8968 26.6644C79.8968 23.8773 78.9678 21.0902 75.5613 21.0902C70.9162 21.3999 68.1291 29.7612 68.1291 35.0257Z" fill="#8BB43F"/>
<path d="M103.432 15.516L102.813 18.6128C105.29 15.516 108.697 13.658 112.413 13.658C118.916 13.658 121.703 19.5418 121.703 25.4257C121.703 36.5741 114.581 47.4128 104.052 47.4128C102.194 47.7225 100.026 46.4838 99.0968 46.4838H98.7872L96.3097 58.8708H87.3291L93.5227 26.0451L103.432 15.516ZM100.026 39.6709C100.955 40.5999 102.194 40.9096 103.742 40.9096C108.697 40.9096 112.413 32.5483 112.413 26.6644C112.413 24.187 111.484 21.7096 108.697 21.7096C105.6 21.7096 102.503 25.4257 101.574 30.9999L100.026 39.6709Z" fill="#8BB43F"/>
<path d="M122.323 46.4838L128.516 22.9483L137.807 15.5161L131.613 46.4838H122.323ZM135.02 1.58057C137.807 1.58057 139.665 3.74831 139.665 6.53541C139.665 9.94186 137.187 12.4193 134.4 12.4193C131.923 12.4193 130.065 9.94185 130.065 7.15476" fill="#8BB43F"/>
<path d="M159.794 0.0322266C161.961 0.0322266 163.819 0.341902 164.749 0.961257L162.89 8.08384C161.961 7.77416 161.032 7.46448 160.103 7.46448C157.007 7.46448 155.149 10.5613 154.839 13.658L154.219 15.5161H160.413L159.174 21.7096H152.981L148.026 46.4838H139.355L144.31 21.7096H139.974L141.213 15.5161H145.549L145.858 13.658" fill="#8BB43F"/>
<path d="M171.871 15.5161L173.419 29.4516C173.729 32.5484 174.038 34.0968 174.348 37.1935C174.968 34.0968 175.587 33.1677 177.135 29.7613L182.709 15.5161H192L180.851 39.0516C176.826 47.1032 173.109 52.9871 168.774 57.0129C165.677 60.1097 161.651 61.3484 159.793 61.9677L157.316 54.2258C158.864 53.6064 160.722 52.9871 162.58 51.7484C164.748 50.2 166.606 48.3419 167.535 46.1742C167.845 45.8645 167.845 45.2452 167.845 44.6258L165.677 22.329L171.871 15.5161Z" fill="#8BB43F"/>
</svg>
