<svg width="28" height="20" viewBox="0 0 28 20" fill="none" xmlns="http://www.w3.org/2000/svg">
<rect x="0.25" y="0.25" width="27.5" height="19.5" rx="1.75" fill="white" stroke="#F5F5F5" stroke-width="0.5"/>
<mask id="mask0" mask-type="alpha" maskUnits="userSpaceOnUse" x="0" y="0" width="28" height="20">
<rect x="0.25" y="0.25" width="27.5" height="19.5" rx="1.75" fill="white" stroke="white" stroke-width="0.5"/>
</mask>
<g mask="url(#mask0)">
<rect x="20" width="8" height="20" fill="#FF3131"/>
<path fill-rule="evenodd" clip-rule="evenodd" d="M0 20H8V0H0V20Z" fill="#FF3131"/>
<path fill-rule="evenodd" clip-rule="evenodd" d="M16.1117 9.22145C15.8785 9.45465 15.4845 9.24377 15.5492 8.92037L15.9999 6.66659L14.6666 7.33325L13.9999 5.33325L13.3333 7.33325L11.9999 6.66659L12.4507 8.92037C12.5154 9.24377 12.1213 9.45465 11.8881 9.22145L11.569 8.90229C11.4388 8.77211 11.2277 8.77211 11.0975 8.90229L10.6666 9.33325L9.33325 8.66659L9.99992 9.99992L9.56895 10.4309C9.43878 10.5611 9.43878 10.7721 9.56895 10.9023L11.3333 12.6666H13.3333L13.6666 14.6666H14.3333L14.6666 12.6666H16.6666L18.4309 10.9023C18.5611 10.7721 18.5611 10.5611 18.4309 10.4309L17.9999 9.99992L18.6666 8.66659L17.3333 9.33325L16.9023 8.90229C16.7721 8.77211 16.5611 8.77211 16.4309 8.90229L16.1117 9.22145Z" fill="#FF3131"/>
</g>
</svg>
