<svg width="28" height="20" viewBox="0 0 28 20" fill="none" xmlns="http://www.w3.org/2000/svg">
<rect x="0.25" y="0.25" width="27.5" height="19.5" rx="1.75" fill="white" stroke="#F5F5F5" stroke-width="0.5"/>
<mask id="mask0" mask-type="alpha" maskUnits="userSpaceOnUse" x="0" y="0" width="28" height="20">
<rect x="0.25" y="0.25" width="27.5" height="19.5" rx="1.75" fill="white" stroke="white" stroke-width="0.5"/>
</mask>
<g mask="url(#mask0)">
<path fill-rule="evenodd" clip-rule="evenodd" d="M19.9999 3.33341C20.363 3.15186 20.7315 3.56932 20.5064 3.90709L20.0672 4.56588C20.0228 4.63247 19.9656 4.6896 19.8991 4.73399L18.0548 5.96346C18.0183 5.98782 17.9843 6.01572 17.9532 6.04676L17.8047 6.19534C17.5443 6.45569 17.5443 6.8778 17.8047 7.13815L18.1952 7.52868C18.4555 7.78903 18.4555 8.21114 18.1952 8.47149L17.673 8.99365C17.4701 9.19655 17.1601 9.24686 16.9035 9.11853L16.5962 8.96489C16.2669 8.80023 15.8664 8.93371 15.7018 9.26303L15.4567 9.75309C15.3777 9.91124 15.239 10.0315 15.0713 10.0874L13.4359 10.6325C13.3679 10.6552 13.2967 10.6667 13.2251 10.6667H12.4119C12.1594 10.6667 11.9286 10.8094 11.8157 11.0353L11.6314 11.4038C11.4667 11.7331 11.0663 11.8666 10.737 11.7019L8.76335 10.7151C8.69926 10.6831 8.64075 10.6409 8.59009 10.5902L7.52851 9.52868C7.40349 9.40365 7.33325 9.23408 7.33325 9.05727V8.47149C7.33325 8.21114 7.54431 8.00008 7.80466 8.00008C7.92968 8.00008 8.04958 7.95042 8.13799 7.86201L9.13799 6.86201C9.26301 6.73699 9.43258 6.66675 9.60939 6.66675H10.1861C10.473 6.66675 10.7278 6.48313 10.8185 6.2109L11.1471 5.22507C11.2535 4.90611 11.5807 4.71623 11.9103 4.78217L14.5196 5.30401C14.6164 5.32337 14.7163 5.321 14.812 5.29706L17.2623 4.6845C17.3094 4.6727 17.3552 4.65577 17.3987 4.63402L18.6666 4.00008L19.9999 3.33341Z" fill="#E7832C"/>
<path fill-rule="evenodd" clip-rule="evenodd" d="M13.9999 16.0001C14.3681 16.0001 14.6666 15.7016 14.6666 15.3334C14.6666 14.9652 14.3681 14.6667 13.9999 14.6667C13.6317 14.6667 13.3333 14.9652 13.3333 15.3334C13.3333 15.7016 13.6317 16.0001 13.9999 16.0001Z" fill="#445128"/>
<path opacity="0.75" d="M16 14.6667C16 14.6667 18 14.0001 18.6667 12.6667" stroke="#445128" stroke-width="1.33333" stroke-linecap="round"/>
<path opacity="0.75" d="M12 14.6667C12 14.6667 10 14.0001 9.33333 12.6667" stroke="#445128" stroke-width="1.33333" stroke-linecap="round"/>
</g>
</svg>
