<svg width="28" height="20" viewBox="0 0 28 20" fill="none" xmlns="http://www.w3.org/2000/svg">
<rect width="28" height="20" rx="2" fill="white"/>
<mask id="mask0" mask-type="alpha" maskUnits="userSpaceOnUse" x="0" y="0" width="28" height="20">
<rect width="28" height="20" rx="2" fill="white"/>
</mask>
<g mask="url(#mask0)">
<path fill-rule="evenodd" clip-rule="evenodd" d="M28 0V10H0V0H28Z" fill="#29C53F"/>
<path fill-rule="evenodd" clip-rule="evenodd" d="M28 10V20.6667H0V10H28Z" fill="#579DED"/>
<path fill-rule="evenodd" clip-rule="evenodd" d="M0 20L28 10L0 0V20Z" fill="#F42D56"/>
<path d="M12.6667 9.99992C12.6667 12.2091 10.8758 13.9999 8.66667 13.9999C6.45753 13.9999 4.66667 12.2091 4.66667 9.99992C4.66667 7.79078 6.45753 5.99992 8.66667 5.99992C10.8758 5.99992 12.6667 7.79078 12.6667 9.99992Z" stroke="#FFC63C" stroke-width="1.33333"/>
<path fill-rule="evenodd" clip-rule="evenodd" d="M7.99992 9.33333C8.36811 9.33333 8.66659 9.03486 8.66659 8.66667C8.66659 8.29848 8.36811 8 7.99992 8C7.63173 8 7.33325 8.29848 7.33325 8.66667C7.33325 9.03486 7.63173 9.33333 7.99992 9.33333Z" fill="#FFC63C"/>
<path fill-rule="evenodd" clip-rule="evenodd" d="M9.33341 10.0001C9.7016 10.0001 10.0001 9.7016 10.0001 9.33341C10.0001 8.96522 9.7016 8.66675 9.33341 8.66675C8.96522 8.66675 8.66675 8.96522 8.66675 9.33341C8.66675 9.7016 8.96522 10.0001 9.33341 10.0001Z" fill="#FFC63C"/>
<path fill-rule="evenodd" clip-rule="evenodd" d="M8.66667 8.66659C9.03486 8.66659 9.33333 8.36811 9.33333 7.99992C9.33333 7.63173 9.03486 7.33325 8.66667 7.33325C8.29848 7.33325 8 7.63173 8 7.99992C8 8.36811 8.29848 8.66659 8.66667 8.66659Z" fill="#FFC63C"/>
<path fill-rule="evenodd" clip-rule="evenodd" d="M7.99992 10.6666C8.36811 10.6666 8.66659 10.3681 8.66659 9.99992C8.66659 9.63173 8.36811 9.33325 7.99992 9.33325C7.63173 9.33325 7.33325 9.63173 7.33325 9.99992C7.33325 10.3681 7.63173 10.6666 7.99992 10.6666Z" fill="#FFC63C"/>
<path fill-rule="evenodd" clip-rule="evenodd" d="M9.33341 11.3333C9.7016 11.3333 10.0001 11.0349 10.0001 10.6667C10.0001 10.2985 9.7016 10 9.33341 10C8.96522 10 8.66675 10.2985 8.66675 10.6667C8.66675 11.0349 8.96522 11.3333 9.33341 11.3333Z" fill="#FFC63C"/>
<path fill-rule="evenodd" clip-rule="evenodd" d="M7.99992 12.0001C8.36811 12.0001 8.66659 11.7016 8.66659 11.3334C8.66659 10.9652 8.36811 10.6667 7.99992 10.6667C7.63173 10.6667 7.33325 10.9652 7.33325 11.3334C7.33325 11.7016 7.63173 12.0001 7.99992 12.0001Z" fill="#FFC63C"/>
<path fill-rule="evenodd" clip-rule="evenodd" d="M9.33341 12.6666C9.7016 12.6666 10.0001 12.3681 10.0001 11.9999C10.0001 11.6317 9.7016 11.3333 9.33341 11.3333C8.96522 11.3333 8.66675 11.6317 8.66675 11.9999C8.66675 12.3681 8.96522 12.6666 9.33341 12.6666Z" fill="#FFC63C"/>
</g>
</svg>
