<svg width="28" height="20" viewBox="0 0 28 20" fill="none" xmlns="http://www.w3.org/2000/svg">
<rect width="28" height="20" rx="2" fill="white"/>
<mask id="mask0" mask-type="alpha" maskUnits="userSpaceOnUse" x="0" y="0" width="28" height="20">
<rect width="28" height="20" rx="2" fill="white"/>
</mask>
<g mask="url(#mask0)">
<path fill-rule="evenodd" clip-rule="evenodd" d="M0 6.66667H28V0H0V6.66667Z" fill="#20AA46"/>
<path fill-rule="evenodd" clip-rule="evenodd" d="M0 19.9999H28V13.3333H0V19.9999Z" fill="#E92F3B"/>
<path fill-rule="evenodd" clip-rule="evenodd" d="M0 13.3334H28V6.66675H0V13.3334Z" fill="#FADF50"/>
<path fill-rule="evenodd" clip-rule="evenodd" d="M13.9999 14.6666C16.5772 14.6666 18.6666 12.5772 18.6666 9.99992C18.6666 7.42259 16.5772 5.33325 13.9999 5.33325C11.4226 5.33325 9.33325 7.42259 9.33325 9.99992C9.33325 12.5772 11.4226 14.6666 13.9999 14.6666Z" fill="#205CCA"/>
<path d="M14.1936 11.0287L14.0001 10.8907L13.8066 11.0287L12.6578 11.8476L13.0816 10.502L13.153 10.2753L12.9621 10.1339L11.8282 9.29438L13.239 9.28168L13.4766 9.27954L13.552 9.05422L14.0001 7.71639L14.4481 9.05422L14.5236 9.27954L14.7612 9.28168L16.172 9.29438L15.0381 10.1339L14.8471 10.2753L14.9185 10.502L15.3424 11.8476L14.1936 11.0287Z" stroke="#FFDB3D" stroke-width="0.666667"/>
</g>
</svg>
