<svg width="28" height="20" viewBox="0 0 28 20" fill="none" xmlns="http://www.w3.org/2000/svg">
<rect x="0.25" y="0.25" width="27.5" height="19.5" rx="1.75" fill="white" stroke="#F5F5F5" stroke-width="0.5"/>
<mask id="mask0" mask-type="alpha" maskUnits="userSpaceOnUse" x="0" y="0" width="28" height="20">
<rect x="0.25" y="0.25" width="27.5" height="19.5" rx="1.75" fill="white" stroke="white" stroke-width="0.5"/>
</mask>
<g mask="url(#mask0)">
<path fill-rule="evenodd" clip-rule="evenodd" d="M0 6.66667H28V0H0V6.66667Z" fill="#FF202D"/>
<path opacity="0.5" fill-rule="evenodd" clip-rule="evenodd" d="M10.6667 5.33341L11.3334 4.66675L12.0001 5.33341V6.66675H10.6667V5.33341ZM13.3334 5.33341L14.0001 4.66675L14.6667 5.33341V6.66675H13.3334V5.33341ZM16.6667 4.66675L16.0001 5.33341V6.66675H17.3334V5.33341L16.6667 4.66675Z" fill="#1895DB"/>
<path opacity="0.5" fill-rule="evenodd" clip-rule="evenodd" d="M12.6667 4.66675L12 5.33341V6.66675H13.3333V5.33341L12.6667 4.66675ZM15.3333 4.66675L14.6667 5.33341V6.66675H16V5.33341L15.3333 4.66675Z" fill="#191F94"/>
<path fill-rule="evenodd" clip-rule="evenodd" d="M0 19.9999H28V13.3333H0V19.9999Z" fill="#2027AC"/>
<path fill-rule="evenodd" clip-rule="evenodd" d="M12.0001 6.66675H11.3334L10.6667 8.00008H12.0001V9.33341H10.6667V10.6667H12.0001V12.0001H10.6667V13.3334H12.0001V14.6667H13.3334V13.3334H14.6667V14.6667H16.0001V13.3334H17.3334V12.0001H16.0001V10.6667H17.3334V9.33341H16.0001V8.00008H17.3334L16.6667 6.66675H16.0001V8.00008H14.6667V6.66675H13.3334V8.00008H12.0001V6.66675ZM13.3334 9.33341V8.00008H14.6667V9.33341H13.3334ZM13.3334 10.6667V9.33341H12.0001V10.6667H13.3334ZM14.6667 10.6667H13.3334V12.0001H12.0001V13.3334H13.3334V12.0001H14.6667V13.3334H16.0001V12.0001H14.6667V10.6667ZM14.6667 10.6667H16.0001V9.33341H14.6667V10.6667Z" fill="url(#paint0_linear)"/>
</g>
<defs>
<linearGradient id="paint0_linear" x1="10.6667" y1="6.66675" x2="10.6667" y2="14.6667" gradientUnits="userSpaceOnUse">
<stop stop-color="#FF212E"/>
<stop offset="1" stop-color="#FD0D1B"/>
</linearGradient>
</defs>
</svg>
