<svg width="28" height="20" viewBox="0 0 28 20" fill="none" xmlns="http://www.w3.org/2000/svg">
<rect x="0.25" y="0.25" width="27.5" height="19.5" rx="1.75" fill="white" stroke="#F5F5F5" stroke-width="0.5"/>
<mask id="mask0" mask-type="alpha" maskUnits="userSpaceOnUse" x="0" y="0" width="28" height="20">
<rect x="0.25" y="0.25" width="27.5" height="19.5" rx="1.75" fill="white" stroke="white" stroke-width="0.5"/>
</mask>
<g mask="url(#mask0)">
<path fill-rule="evenodd" clip-rule="evenodd" d="M0 6.66667H28V0H0V6.66667Z" fill="#38BB56"/>
<path fill-rule="evenodd" clip-rule="evenodd" d="M0 19.9999H28V13.3333H0V19.9999Z" fill="#DE1B27"/>
<path fill-rule="evenodd" clip-rule="evenodd" d="M1.66659 5.33325C1.48249 5.33325 1.33325 5.48249 1.33325 5.66659V6.33325C1.33325 6.51735 1.48249 6.66659 1.66659 6.66659H2.33325C2.51735 6.66659 2.66659 6.51735 2.66659 6.33325V5.66659C2.66659 5.48249 2.51735 5.33325 2.33325 5.33325H1.66659ZM4.33325 5.33325C4.14916 5.33325 3.99992 5.48249 3.99992 5.66659V6.33325C3.99992 6.51735 4.14916 6.66659 4.33325 6.66659H4.99992C5.18401 6.66659 5.33325 6.51735 5.33325 6.33325V5.66659C5.33325 5.48249 5.18401 5.33325 4.99992 5.33325H4.33325ZM6.66659 5.66659C6.66659 5.48249 6.81582 5.33325 6.99992 5.33325H7.66658C7.85068 5.33325 7.99992 5.48249 7.99992 5.66659V6.33325C7.99992 6.51735 7.85068 6.66659 7.66659 6.66659H6.99992C6.81582 6.66659 6.66659 6.51735 6.66659 6.33325V5.66659ZM9.66658 5.33325C9.48249 5.33325 9.33325 5.48249 9.33325 5.66659V6.33325C9.33325 6.51735 9.48249 6.66659 9.66659 6.66659H10.3333C10.5173 6.66659 10.6666 6.51735 10.6666 6.33325V5.66659C10.6666 5.48249 10.5173 5.33325 10.3333 5.33325H9.66658ZM11.9999 5.66659C11.9999 5.48249 12.1492 5.33325 12.3333 5.33325H12.9999C13.184 5.33325 13.3333 5.48249 13.3333 5.66659V6.33325C13.3333 6.51735 13.184 6.66659 12.9999 6.66659H12.3333C12.1492 6.66659 11.9999 6.51735 11.9999 6.33325V5.66659ZM14.9999 5.33325C14.8158 5.33325 14.6666 5.48249 14.6666 5.66659V6.33325C14.6666 6.51735 14.8158 6.66659 14.9999 6.66659H15.6666C15.8507 6.66659 15.9999 6.51735 15.9999 6.33325V5.66659C15.9999 5.48249 15.8507 5.33325 15.6666 5.33325H14.9999ZM17.3333 5.66659C17.3333 5.48249 17.4825 5.33325 17.6666 5.33325H18.3333C18.5173 5.33325 18.6666 5.48249 18.6666 5.66659V6.33325C18.6666 6.51735 18.5173 6.66659 18.3333 6.66659H17.6666C17.4825 6.66659 17.3333 6.51735 17.3333 6.33325V5.66659ZM20.3333 5.33325C20.1492 5.33325 19.9999 5.48249 19.9999 5.66659V6.33325C19.9999 6.51735 20.1492 6.66659 20.3333 6.66659H20.9999C21.184 6.66659 21.3333 6.51735 21.3333 6.33325V5.66659C21.3333 5.48249 21.184 5.33325 20.9999 5.33325H20.3333ZM22.6666 5.66659C22.6666 5.48249 22.8158 5.33325 22.9999 5.33325H23.6666C23.8507 5.33325 23.9999 5.48249 23.9999 5.66659V6.33325C23.9999 6.51735 23.8507 6.66659 23.6666 6.66659H22.9999C22.8158 6.66659 22.6666 6.51735 22.6666 6.33325V5.66659ZM25.6666 5.33325C25.4825 5.33325 25.3333 5.48249 25.3333 5.66659V6.33325C25.3333 6.51735 25.4825 6.66659 25.6666 6.66659H26.3333C26.5173 6.66659 26.6666 6.51735 26.6666 6.33325V5.66659C26.6666 5.48249 26.5173 5.33325 26.3333 5.33325H25.6666ZM1.33325 13.6666C1.33325 13.4825 1.48249 13.3333 1.66659 13.3333H2.33325C2.51735 13.3333 2.66659 13.4825 2.66659 13.6666V14.3333C2.66659 14.5173 2.51735 14.6666 2.33325 14.6666H1.66659C1.48249 14.6666 1.33325 14.5173 1.33325 14.3333V13.6666ZM4.33325 13.3333C4.14916 13.3333 3.99992 13.4825 3.99992 13.6666V14.3333C3.99992 14.5173 4.14916 14.6666 4.33325 14.6666H4.99992C5.18401 14.6666 5.33325 14.5173 5.33325 14.3333V13.6666C5.33325 13.4825 5.18401 13.3333 4.99992 13.3333H4.33325ZM6.66659 13.6666C6.66659 13.4825 6.81582 13.3333 6.99992 13.3333H7.66658C7.85068 13.3333 7.99992 13.4825 7.99992 13.6666V14.3333C7.99992 14.5173 7.85068 14.6666 7.66659 14.6666H6.99992C6.81582 14.6666 6.66659 14.5173 6.66659 14.3333V13.6666ZM9.66658 13.3333C9.48249 13.3333 9.33325 13.4825 9.33325 13.6666V14.3333C9.33325 14.5173 9.48249 14.6666 9.66659 14.6666H10.3333C10.5173 14.6666 10.6666 14.5173 10.6666 14.3333V13.6666C10.6666 13.4825 10.5173 13.3333 10.3333 13.3333H9.66658ZM11.9999 13.6666C11.9999 13.4825 12.1492 13.3333 12.3333 13.3333H12.9999C13.184 13.3333 13.3333 13.4825 13.3333 13.6666V14.3333C13.3333 14.5173 13.184 14.6666 12.9999 14.6666H12.3333C12.1492 14.6666 11.9999 14.5173 11.9999 14.3333V13.6666ZM14.9999 13.3333C14.8158 13.3333 14.6666 13.4825 14.6666 13.6666V14.3333C14.6666 14.5173 14.8158 14.6666 14.9999 14.6666H15.6666C15.8507 14.6666 15.9999 14.5173 15.9999 14.3333V13.6666C15.9999 13.4825 15.8507 13.3333 15.6666 13.3333H14.9999ZM17.3333 13.6666C17.3333 13.4825 17.4825 13.3333 17.6666 13.3333H18.3333C18.5173 13.3333 18.6666 13.4825 18.6666 13.6666V14.3333C18.6666 14.5173 18.5173 14.6666 18.3333 14.6666H17.6666C17.4825 14.6666 17.3333 14.5173 17.3333 14.3333V13.6666ZM20.3333 13.3333C20.1492 13.3333 19.9999 13.4825 19.9999 13.6666V14.3333C19.9999 14.5173 20.1492 14.6666 20.3333 14.6666H20.9999C21.184 14.6666 21.3333 14.5173 21.3333 14.3333V13.6666C21.3333 13.4825 21.184 13.3333 20.9999 13.3333H20.3333ZM22.6666 13.6666C22.6666 13.4825 22.8158 13.3333 22.9999 13.3333H23.6666C23.8507 13.3333 23.9999 13.4825 23.9999 13.6666V14.3333C23.9999 14.5173 23.8507 14.6666 23.6666 14.6666H22.9999C22.8158 14.6666 22.6666 14.5173 22.6666 14.3333V13.6666ZM25.6666 13.3333C25.4825 13.3333 25.3333 13.4825 25.3333 13.6666V14.3333C25.3333 14.5173 25.4825 14.6666 25.6666 14.6666H26.3333C26.5173 14.6666 26.6666 14.5173 26.6666 14.3333V13.6666C26.6666 13.4825 26.5173 13.3333 26.3333 13.3333H25.6666Z" fill="white" fill-opacity="0.5"/>
<mask id="path-6-inside-1" fill="white">
<path fill-rule="evenodd" clip-rule="evenodd" d="M12.6535 8.52124C12.252 8.88703 12 9.41414 12 10.0001C12 11.1047 12.8954 12.0001 14 12.0001C15.1046 12.0001 16 11.1047 16 10.0001C16 9.4252 15.7574 8.90695 15.3691 8.54212"/>
</mask>
<path d="M12.2045 8.02842C11.6702 8.51522 11.3333 9.2188 11.3333 10.0001H12.6667C12.6667 9.60948 12.8338 9.25885 13.1025 9.01406L12.2045 8.02842ZM11.3333 10.0001C11.3333 11.4729 12.5272 12.6668 14 12.6668V11.3334C13.2636 11.3334 12.6667 10.7365 12.6667 10.0001H11.3333ZM14 12.6668C15.4728 12.6668 16.6667 11.4729 16.6667 10.0001H15.3333C15.3333 10.7365 14.7364 11.3334 14 11.3334V12.6668ZM16.6667 10.0001C16.6667 9.23361 16.3424 8.54179 15.8255 8.05622L14.9126 9.02802C15.1724 9.27211 15.3333 9.61679 15.3333 10.0001H16.6667Z" fill="#D80915" mask="url(#path-6-inside-1)"/>
<rect x="13.3333" y="9.33325" width="1.33333" height="2.66667" rx="0.666667" fill="#D80915"/>
</g>
</svg>
