<svg width="28" height="20" viewBox="0 0 28 20" fill="none" xmlns="http://www.w3.org/2000/svg">
<rect width="28" height="20" rx="2" fill="white"/>
<mask id="mask0" mask-type="alpha" maskUnits="userSpaceOnUse" x="0" y="0" width="28" height="20">
<rect width="28" height="20" rx="2" fill="white"/>
</mask>
<g mask="url(#mask0)">
<path fill-rule="evenodd" clip-rule="evenodd" d="M0 5.33333H28V0H0V5.33333Z" fill="#262626"/>
<path fill-rule="evenodd" clip-rule="evenodd" d="M0 20.0001H28V14.6667H0V20.0001Z" fill="#018301"/>
<path fill-rule="evenodd" clip-rule="evenodd" d="M0 14.6666H28V5.33325H0V14.6666Z" fill="white"/>
<path fill-rule="evenodd" clip-rule="evenodd" d="M0 13.3334H28V6.66675H0V13.3334Z" fill="#DC0808"/>
<path fill-rule="evenodd" clip-rule="evenodd" d="M14.0001 16.6666C15.3334 16.6666 17.3334 14.05 17.3334 9.99992C17.3334 5.94983 15.3334 3.33325 14.0001 3.33325C12.6667 3.33325 10.6667 5.94983 10.6667 9.99992C10.6667 14.05 12.6667 16.6666 14.0001 16.6666Z" fill="#BC0000"/>
<mask id="mask1" mask-type="alpha" maskUnits="userSpaceOnUse" x="10" y="3" width="8" height="14">
<path fill-rule="evenodd" clip-rule="evenodd" d="M14.0001 16.6666C15.3334 16.6666 17.3334 14.05 17.3334 9.99992C17.3334 5.94983 15.3334 3.33325 14.0001 3.33325C12.6667 3.33325 10.6667 5.94983 10.6667 9.99992C10.6667 14.05 12.6667 16.6666 14.0001 16.6666Z" fill="white"/>
</mask>
<g mask="url(#mask1)">
<path fill-rule="evenodd" clip-rule="evenodd" d="M8.66683 17.3332C10.5078 17.3332 12.0002 14.0499 12.0002 9.99984C12.0002 5.94975 10.5078 2.6665 8.66683 2.6665C6.82588 2.6665 5.3335 5.94975 5.3335 9.99984C5.3335 14.0499 6.82588 17.3332 8.66683 17.3332Z" fill="#262626"/>
<path fill-rule="evenodd" clip-rule="evenodd" d="M19.3333 17.3332C21.1743 17.3332 22.6667 14.0499 22.6667 9.99984C22.6667 5.94975 21.1743 2.6665 19.3333 2.6665C17.4924 2.6665 16 5.94975 16 9.99984C16 14.0499 17.4924 17.3332 19.3333 17.3332Z" fill="#262626"/>
<g filter="url(#filter0_d)">
<path fill-rule="evenodd" clip-rule="evenodd" d="M14.0002 7.99984C14.3684 7.99984 14.6668 6.80593 14.6668 5.33317C14.6668 3.86041 14.3684 2.6665 14.0002 2.6665C13.632 2.6665 13.3335 3.86041 13.3335 5.33317C13.3335 6.80593 13.632 7.99984 14.0002 7.99984ZM14.0002 11.9998C14.3684 11.9998 14.6668 11.1044 14.6668 9.99984C14.6668 8.89527 14.3684 7.99984 14.0002 7.99984C13.632 7.99984 13.3335 8.89527 13.3335 9.99984C13.3335 11.1044 13.632 11.9998 14.0002 11.9998ZM14.0002 11.9998C13.632 11.9998 13.3335 13.1937 13.3335 14.6665C13.3335 16.1393 13.632 17.3332 14.0002 17.3332C14.3684 17.3332 14.6668 16.1393 14.6668 14.6665C14.6668 13.1937 14.3684 11.9998 14.0002 11.9998Z" fill="url(#paint0_linear)"/>
</g>
</g>
</g>
<defs>
<filter id="filter0_d" x="13.3335" y="2.6665" width="1.33333" height="15.6667" filterUnits="userSpaceOnUse" color-interpolation-filters="sRGB">
<feFlood flood-opacity="0" result="BackgroundImageFix"/>
<feColorMatrix in="SourceAlpha" type="matrix" values="0 0 0 0 0 0 0 0 0 0 0 0 0 0 0 0 0 0 127 0"/>
<feOffset dy="1"/>
<feColorMatrix type="matrix" values="0 0 0 0 0 0 0 0 0 0 0 0 0 0 0 0 0 0 0.06 0"/>
<feBlend mode="normal" in2="BackgroundImageFix" result="effect1_dropShadow"/>
<feBlend mode="normal" in="SourceGraphic" in2="effect1_dropShadow" result="shape"/>
</filter>
<linearGradient id="paint0_linear" x1="13.3335" y1="2.6665" x2="13.3335" y2="17.3332" gradientUnits="userSpaceOnUse">
<stop stop-color="white"/>
<stop offset="1" stop-color="#F0F0F0"/>
</linearGradient>
</defs>
</svg>
