<svg width="28" height="20" viewBox="0 0 28 20" fill="none" xmlns="http://www.w3.org/2000/svg">
<rect width="28" height="20" rx="2" fill="white"/>
<mask id="mask0" mask-type="alpha" maskUnits="userSpaceOnUse" x="0" y="0" width="28" height="20">
<rect width="28" height="20" rx="2" fill="white"/>
</mask>
<g mask="url(#mask0)">
<path fill-rule="evenodd" clip-rule="evenodd" d="M0 13.3333L28 0H0V13.3333Z" fill="#1EC160"/>
<path fill-rule="evenodd" clip-rule="evenodd" d="M0 20.0001H28V6.66675L0 20.0001Z" fill="#DF2A40"/>
<path fill-rule="evenodd" clip-rule="evenodd" d="M0.783836 25.3333L33.575 4.84308L27.216 -5.3335L-5.5752 15.1567L0.783836 25.3333Z" fill="#FFD956"/>
<path fill-rule="evenodd" clip-rule="evenodd" d="M-0.629314 23.0718L32.1619 2.58163L28.6291 -3.07202L-4.16211 17.4182L-0.629314 23.0718Z" fill="#262626"/>
<path fill-rule="evenodd" clip-rule="evenodd" d="M20.3095 7.79735L19.3641 9.29471L18.7506 7.63351L17.0344 7.19708L18.4248 6.10034L18.3095 4.33325L19.7822 5.31662L21.4272 4.66093L20.947 6.36544L22.0789 7.72728L20.3095 7.79735Z" fill="white"/>
<path fill-rule="evenodd" clip-rule="evenodd" d="M9.64274 14.2642L8.69733 15.7615L8.0839 14.1003L6.36768 13.6639L7.75801 12.5671L7.64274 10.8L9.11544 11.7834L10.7604 11.1277L10.2803 12.8322L11.4122 14.1941L9.64274 14.2642Z" fill="white"/>
</g>
</svg>
