<svg width="28" height="20" viewBox="0 0 28 20" fill="none" xmlns="http://www.w3.org/2000/svg">
<rect width="28" height="20" rx="2" fill="white"/>
<mask id="mask0" mask-type="alpha" maskUnits="userSpaceOnUse" x="0" y="0" width="28" height="20">
<rect width="28" height="20" rx="2" fill="white"/>
</mask>
<g mask="url(#mask0)">
<rect width="28" height="20" fill="#E6BE53"/>
<path fill-rule="evenodd" clip-rule="evenodd" d="M1.33325 17.6666C1.33325 18.2189 1.78097 18.6666 2.33325 18.6666H25.6666C26.2189 18.6666 26.6666 18.2189 26.6666 17.6666V2.33325C26.6666 1.78097 26.2189 1.33325 25.6666 1.33325H2.33325C1.78097 1.33325 1.33325 1.78097 1.33325 2.33325V17.6666Z" fill="#E01826"/>
<path fill-rule="evenodd" clip-rule="evenodd" d="M13.0233 3.65888C12.5531 3.8156 12.4122 4.41231 12.7627 4.76274L13.138 5.13806C13.263 5.26309 13.4326 5.33332 13.6094 5.33332H14.3904C14.5673 5.33332 14.7368 5.26309 14.8618 5.13806L15.2372 4.76274C15.5876 4.4123 15.4467 3.8156 14.9766 3.65888L14.2107 3.4036C14.0739 3.35798 13.9259 3.35798 13.7891 3.4036L13.0233 3.65888ZM14.4713 6.86192C14.211 7.12227 13.7889 7.12227 13.5285 6.86192L13.3333 6.66666L12.3397 5.67309C12.1368 5.47019 11.8268 5.41988 11.5701 5.54821L11.4939 5.58634C11.0869 5.78984 10.9989 6.33227 11.3206 6.65403L11.3333 6.66666L12.3268 7.66022C12.5297 7.86313 12.58 8.17311 12.4517 8.42977L12.0379 9.2574C12.0129 9.30733 11.9999 9.36238 11.9999 9.4182C11.9999 9.6855 11.7186 9.85934 11.4796 9.73981L11.1566 9.57835C10.9156 9.45781 10.8634 9.1365 11.054 8.9459C11.2082 8.79168 11.2082 8.54164 11.054 8.38741L10.7431 8.07649C10.6924 8.02582 10.6502 7.96732 10.6182 7.90323L10.0326 6.73211C10.0109 6.68861 9.99397 6.64285 9.98217 6.59566L9.67296 5.35882C9.53681 4.81422 8.82968 4.67142 8.49286 5.12051L7.46659 6.48888C7.38004 6.60428 7.33325 6.74463 7.33325 6.88888V9.17594C7.33325 9.27944 7.35735 9.38152 7.40363 9.47409L7.95154 10.5699C7.98358 10.634 8.02575 10.6925 8.07642 10.7432L9.25675 11.9235C9.30742 11.9742 9.36593 12.0163 9.43002 12.0484L10.6036 12.6352C10.645 12.6559 10.6907 12.6667 10.737 12.6667C11.0516 12.6667 11.1517 13.0908 10.8703 13.2315L10.7158 13.3087C10.6832 13.325 10.6535 13.3465 10.6277 13.3722L10.3333 13.6667C10.1492 13.8508 9.85068 13.8508 9.66659 13.6667C9.48249 13.4826 9.18401 13.4826 8.99992 13.6667L8.94583 13.7207C8.77907 13.8875 8.73772 14.1423 8.84319 14.3532L9.14899 14.9648C9.26192 15.1907 9.49276 15.3333 9.74527 15.3333H10.5092C10.6127 15.3333 10.7148 15.3092 10.8073 15.2629L11.8012 14.766C11.9302 14.7015 12.0348 14.5969 12.0993 14.4679L12.4016 13.8634C12.5319 13.6026 12.8795 13.5462 13.0856 13.7524C13.2296 13.8964 13.252 14.1219 13.139 14.2914L12.3697 15.4453C12.1655 15.7516 12.2483 16.1656 12.5546 16.3698L13.6301 17.0868C13.8541 17.2361 14.1458 17.2361 14.3697 17.0868L15.4452 16.3698C15.7516 16.1656 15.8344 15.7516 15.6301 15.4453L14.8608 14.2914C14.7479 14.1219 14.7702 13.8964 14.9142 13.7524C15.1204 13.5462 15.4679 13.6026 15.5983 13.8634L15.9005 14.4679C15.965 14.5969 16.0697 14.7015 16.1987 14.766L17.1925 15.2629C17.2851 15.3092 17.3871 15.3333 17.4906 15.3333H18.2546C18.5071 15.3333 18.7379 15.1907 18.8508 14.9648L19.1566 14.3532C19.2621 14.1423 19.2208 13.8875 19.054 13.7207L18.9999 13.6667C18.8158 13.4826 18.5173 13.4826 18.3333 13.6667C18.1492 13.8508 17.8507 13.8508 17.6666 13.6667L17.3721 13.3722C17.3464 13.3465 17.3166 13.325 17.2841 13.3087L17.1295 13.2315C16.8481 13.0908 16.9483 12.6667 17.2629 12.6667C17.3092 12.6667 17.3548 12.6559 17.3962 12.6352L18.5698 12.0484C18.6339 12.0163 18.6924 11.9742 18.7431 11.9235L19.9234 10.7432C19.9741 10.6925 20.0163 10.634 20.0483 10.5699L20.5962 9.47409C20.6425 9.38152 20.6666 9.27944 20.6666 9.17594V6.88888C20.6666 6.74463 20.6198 6.60428 20.5333 6.48888L19.507 5.12051C19.1702 4.67142 18.463 4.81422 18.3269 5.35882L18.0177 6.59566C18.0059 6.64285 17.9889 6.68861 17.9672 6.73211L17.3816 7.90323C17.3496 7.96732 17.3074 8.02582 17.2568 8.07649L16.9458 8.38742C16.7916 8.54164 16.7916 8.79168 16.9458 8.9459C17.1364 9.1365 17.0843 9.45781 16.8432 9.57835L16.5203 9.73981C16.2812 9.85934 15.9999 9.6855 15.9999 9.4182C15.9999 9.36238 15.9869 9.30733 15.962 9.2574L15.5481 8.42977C15.4198 8.17311 15.4701 7.86313 15.673 7.66022L16.6666 6.66666L16.6792 6.65403C17.001 6.33227 16.9129 5.78984 16.506 5.58634L16.4297 5.54821C16.173 5.41988 15.8631 5.47019 15.6602 5.67309L14.6666 6.66666L14.4713 6.86192Z" fill="#E6BE53"/>
<path fill-rule="evenodd" clip-rule="evenodd" d="M12.6667 11.3333C12.6667 11.5787 13.0801 11.6604 13.1997 11.446C13.4322 11.0294 13.7161 10.6666 14.0001 10.6666C14.284 10.6666 14.568 11.0294 14.8004 11.446C14.92 11.6604 15.3334 11.5787 15.3334 11.3333C15.3334 10.2287 14.7365 9.33325 14.0001 9.33325C13.2637 9.33325 12.6667 10.2287 12.6667 11.3333Z" fill="#215F90"/>
</g>
</svg>
