<svg width="28" height="20" viewBox="0 0 28 20" fill="none" xmlns="http://www.w3.org/2000/svg">
<rect width="28" height="20" rx="2" fill="white"/>
<mask id="mask0" mask-type="alpha" maskUnits="userSpaceOnUse" x="0" y="0" width="28" height="20">
<rect width="28" height="20" rx="2" fill="white"/>
</mask>
<g mask="url(#mask0)">
<path fill-rule="evenodd" clip-rule="evenodd" d="M0 20H28V0H0V20Z" fill="#079D7B"/>
<path fill-rule="evenodd" clip-rule="evenodd" d="M15.8851 8.66683C15.8851 8.95869 15.8639 9.24179 15.8241 9.51157C15.9263 9.48013 16.0305 9.45015 16.1364 9.42178C17.9146 8.94531 19.5017 9.10252 19.6814 9.77293C19.8437 10.3788 18.8009 11.1965 17.286 11.7C17.0184 10.9063 15.6491 10.6668 14.0001 10.6668C12.3492 10.6668 10.9787 10.9068 10.7132 11.7026C9.2189 11.1982 8.19476 10.3891 8.35574 9.78824C8.53538 9.11784 10.1225 8.96062 11.9008 9.4371C11.9941 9.46211 12.0862 9.48838 12.1767 9.51579C12.1365 9.24474 12.115 8.96021 12.115 8.66683C12.115 6.82588 12.959 5.3335 14.0001 5.3335C15.0411 5.3335 15.8851 6.82588 15.8851 8.66683ZM10.6667 12.0002L11.8332 12.0002C11.6485 11.9639 11.4599 11.9206 11.2692 11.8699C11.4837 11.8763 11.7483 11.8946 12.051 11.9156C12.5992 11.9535 13.2724 12.0002 14.0001 12.0002C14.7278 12.0002 15.401 11.9535 15.9491 11.9156C16.2405 11.8954 16.4965 11.8776 16.7065 11.8707C16.5091 11.9216 16.3143 11.9647 16.1237 12.0002L17.3334 12.0002L19.3334 12.0002C19.1753 12.4749 18.9624 12.9222 18.7029 13.3335H9.29724C9.03772 12.9222 8.82488 12.4749 8.66674 12.0002L10.6667 12.0002ZM14.0001 16.0002C15.3468 16.0002 16.5836 15.5007 17.5548 14.6668H10.4453C11.4166 15.5007 12.6533 16.0002 14.0001 16.0002Z" fill="white"/>
<path fill-rule="evenodd" clip-rule="evenodd" d="M14 4.00008C14.3682 4.00008 14.6667 3.7016 14.6667 3.33341C14.6667 2.96522 14.3682 2.66675 14 2.66675C13.6318 2.66675 13.3333 2.96522 13.3333 3.33341C13.3333 3.7016 13.6318 4.00008 14 4.00008ZM8.66667 7.33341C9.03486 7.33341 9.33333 7.03494 9.33333 6.66675C9.33333 6.29856 9.03486 6.00008 8.66667 6.00008C8.29848 6.00008 8 6.29856 8 6.66675C8 7.03494 8.29848 7.33341 8.66667 7.33341ZM20 6.66675C20 7.03494 19.7015 7.33341 19.3333 7.33341C18.9651 7.33341 18.6667 7.03494 18.6667 6.66675C18.6667 6.29856 18.9651 6.00008 19.3333 6.00008C19.7015 6.00008 20 6.29856 20 6.66675ZM17.3333 5.33341C17.7015 5.33341 18 5.03494 18 4.66675C18 4.29856 17.7015 4.00008 17.3333 4.00008C16.9651 4.00008 16.6667 4.29856 16.6667 4.66675C16.6667 5.03494 16.9651 5.33341 17.3333 5.33341ZM11.3333 4.66675C11.3333 5.03494 11.0349 5.33341 10.6667 5.33341C10.2985 5.33341 10 5.03494 10 4.66675C10 4.29856 10.2985 4.00008 10.6667 4.00008C11.0349 4.00008 11.3333 4.29856 11.3333 4.66675Z" fill="#FCD117"/>
</g>
</svg>
