<svg width="28" height="20" viewBox="0 0 28 20" fill="none" xmlns="http://www.w3.org/2000/svg">
<rect width="28" height="20" rx="2" fill="white"/>
<mask id="mask0" mask-type="alpha" maskUnits="userSpaceOnUse" x="0" y="0" width="28" height="20">
<rect width="28" height="20" rx="2" fill="white"/>
</mask>
<g mask="url(#mask0)">
<rect width="28" height="20" fill="#108B4D"/>
<path fill-rule="evenodd" clip-rule="evenodd" d="M19.8137 7.73341C19.8622 8.04085 19.8875 8.35605 19.8875 8.67714C19.8875 11.9908 17.2012 14.6771 13.8875 14.6771C10.5737 14.6771 7.88745 11.9908 7.88745 8.67714C7.88745 8.35605 7.91267 8.04085 7.96124 7.73341C8.41393 10.5988 10.8948 12.7897 13.8875 12.7897C16.8801 12.7897 19.361 10.5988 19.8137 7.73341ZM14 8.56417L12.3519 9.73905L12.96 7.80856L11.3333 6.60419L13.3573 6.58597L14 4.66675L14.6428 6.58597L16.6667 6.60419L15.04 7.80856L15.6481 9.73905L14 8.56417Z" fill="#FFC941"/>
</g>
</svg>
