<svg width="28" height="20" viewBox="0 0 28 20" fill="none" xmlns="http://www.w3.org/2000/svg">
<rect width="28" height="20" rx="2" fill="white"/>
<mask id="mask0" mask-type="alpha" maskUnits="userSpaceOnUse" x="0" y="0" width="28" height="20">
<rect width="28" height="20" rx="2" fill="white"/>
</mask>
<g mask="url(#mask0)">
<rect width="28" height="20" fill="#262626"/>
<path fill-rule="evenodd" clip-rule="evenodd" d="M0 0H28V20L0 0Z" fill="#E8283F"/>
<path fill-rule="evenodd" clip-rule="evenodd" d="M6.66659 16.6667L5.72378 16.9429L5.99992 16.0001L5.72378 15.0573L6.66659 15.3334L7.60939 15.0573L7.33325 16.0001L7.60939 16.9429L6.66659 16.6667Z" fill="white"/>
<path fill-rule="evenodd" clip-rule="evenodd" d="M6.66659 8.66675L5.72378 8.94289L5.99992 8.00008L5.72378 7.05727L6.66659 7.33341L7.60939 7.05727L7.33325 8.00008L7.60939 8.94289L6.66659 8.66675Z" fill="white"/>
<path fill-rule="evenodd" clip-rule="evenodd" d="M3.33333 12L2.39052 12.2761L2.66667 11.3333L2.39052 10.3905L3.33333 10.6667L4.27614 10.3905L4 11.3333L4.27614 12.2761L3.33333 12Z" fill="white"/>
<path fill-rule="evenodd" clip-rule="evenodd" d="M9.33333 11.3333L8.39052 11.6094L8.66667 10.6666L8.39052 9.72378L9.33333 9.99992L10.2761 9.72378L10 10.6666L10.2761 11.6094L9.33333 11.3333Z" fill="white"/>
<path fill-rule="evenodd" clip-rule="evenodd" d="M18.8613 9.26565C18.7017 9.16988 18.5723 8.94428 18.5723 8.76379L18.5723 7.53507C18.5723 7.35367 18.4418 7.25013 18.2443 7.31596L17.4861 7.56869C17.3049 7.62908 17.0275 7.63452 16.8301 7.56869L16.0718 7.31596C15.8907 7.25557 15.8706 7.13059 16.0329 7.03321L17.8118 5.96582C17.9715 5.87005 18.0574 5.6619 17.9915 5.46441L17.7388 4.7062C17.6784 4.52505 17.76 4.4217 17.9575 4.48753L18.7157 4.74027C18.8968 4.80065 19.1197 4.72288 19.2171 4.56058L20.2845 2.78159C20.3802 2.62198 20.5014 2.62309 20.5672 2.82058L20.82 3.57879C20.8803 3.75994 20.8858 4.0373 20.82 4.23479L20.5672 4.993C20.5068 5.17415 20.6058 5.321 20.7863 5.321H22.0151C22.1965 5.321 22.4195 5.44773 22.5169 5.61002L23.5843 7.38901C23.6801 7.54863 23.6031 7.70896 23.43 7.74357L21.7284 8.08389C21.5474 8.12009 21.3698 8.30408 21.3351 8.47717L20.9948 10.1787C20.9586 10.3597 20.8026 10.4304 20.6403 10.333L18.8613 9.26565Z" fill="#FFD84E"/>
</g>
</svg>
