<svg width="28" height="20" viewBox="0 0 28 20" fill="none" xmlns="http://www.w3.org/2000/svg">
<rect x="0.25" y="0.25" width="27.5" height="19.5" rx="1.75" fill="white" stroke="#F5F5F5" stroke-width="0.5"/>
<mask id="mask0" mask-type="alpha" maskUnits="userSpaceOnUse" x="0" y="0" width="28" height="20">
<rect x="0.25" y="0.25" width="27.5" height="19.5" rx="1.75" fill="white" stroke="white" stroke-width="0.5"/>
</mask>
<g mask="url(#mask0)">
<path fill-rule="evenodd" clip-rule="evenodd" d="M28 0H8V20H28V0Z" fill="#0A632F"/>
<path fill-rule="evenodd" clip-rule="evenodd" d="M23.67 10.7505C23.5417 12.0012 23.0086 13.2029 22.0664 14.1451C19.8206 16.391 16.1004 16.3121 13.7573 13.969C11.4141 11.6258 11.3353 7.90568 13.5811 5.65982C14.5234 4.7176 15.7251 4.18455 16.9757 4.05622C16.5818 4.28838 16.2089 4.57485 15.8685 4.91527C13.8268 6.95697 13.7258 10.1662 15.6429 12.0833C17.56 14.0005 20.7693 13.8995 22.811 11.8578C23.1514 11.5174 23.4379 11.1445 23.67 10.7505ZM21.0923 8.10469L20.7741 10.0031L19.8848 8.29594L17.9809 8.57994L19.3298 7.2066L18.4713 5.48368L20.1943 6.3421L21.5676 4.99328L21.2836 6.89715L22.9908 7.78645L21.0923 8.10469Z" fill="white"/>
</g>
</svg>
