<svg width="28" height="20" viewBox="0 0 28 20" fill="none" xmlns="http://www.w3.org/2000/svg">
<rect width="28" height="20" rx="2" fill="white"/>
<mask id="mask0" mask-type="alpha" maskUnits="userSpaceOnUse" x="0" y="0" width="28" height="20">
<rect width="28" height="20" rx="2" fill="white"/>
</mask>
<g mask="url(#mask0)">
<rect width="28" height="20" fill="#FF2936"/>
<path fill-rule="evenodd" clip-rule="evenodd" d="M0 20H10.6667V0H0V20Z" fill="#128415"/>
<path d="M10.6667 13.3333C12.5076 13.3333 14 11.8409 14 9.99992C14 8.15897 12.5076 6.66659 10.6667 6.66659C8.82572 6.66659 7.33333 8.15897 7.33333 9.99992C7.33333 11.8409 8.82572 13.3333 10.6667 13.3333Z" stroke="#FAF94F" stroke-width="1.33333"/>
<path fill-rule="evenodd" clip-rule="evenodd" d="M9.33325 8.33333C9.33325 8.14924 9.48249 8 9.66659 8H11.6666C11.8507 8 11.9999 8.14924 11.9999 8.33333V10.6667C11.9999 11.403 11.403 12 10.6666 12C9.93021 12 9.33325 11.403 9.33325 10.6667V8.33333Z" fill="white"/>
<path fill-rule="evenodd" clip-rule="evenodd" d="M10.6667 10.6667C11.0349 10.6667 11.3333 9.7016 11.3333 9.33341C11.3333 8.96522 11.0349 8.66675 10.6667 8.66675C10.2985 8.66675 10 8.96522 10 9.33341C10 9.7016 10.2985 10.6667 10.6667 10.6667Z" fill="#1D50B5"/>
</g>
</svg>
