<svg width="28" height="20" viewBox="0 0 28 20" fill="none" xmlns="http://www.w3.org/2000/svg">
<rect width="28" height="20" rx="2" fill="white"/>
<mask id="mask0" mask-type="alpha" maskUnits="userSpaceOnUse" x="0" y="0" width="28" height="20">
<rect width="28" height="20" rx="2" fill="white"/>
</mask>
<g mask="url(#mask0)">
<rect width="28" height="20" fill="#128C4B"/>
<path fill-rule="evenodd" clip-rule="evenodd" d="M6.66675 11.9999H17.3334V11.0786C17.3334 10.583 17.855 10.2607 18.2982 10.4823L18.6667 10.6666V11.9999H20.6667C21.0349 11.9999 21.3334 12.2984 21.3334 12.6666V13.3332C21.3334 14.0696 20.7365 14.6666 20.0001 14.6666H18.0001C17.6319 14.6666 17.3334 14.3681 17.3334 13.9999V13.3332H8.27622C8.09941 13.3332 7.92984 13.263 7.80482 13.138L6.66675 11.9999Z" fill="white"/>
<path fill-rule="evenodd" clip-rule="evenodd" d="M6.66675 8.13799C6.66675 8.04958 6.70187 7.9648 6.76438 7.90229L7.09771 7.56895C7.22789 7.43878 7.22789 7.22772 7.09771 7.09755L6.76438 6.76422C6.70187 6.7017 6.66675 6.61692 6.66675 6.52851V5.66659C6.66675 5.48249 6.81599 5.33325 7.00008 5.33325H7.74544C7.88607 5.33325 8.00008 5.44726 8.00008 5.5879C8.00008 5.8566 8.36232 5.94211 8.48249 5.70178L8.58187 5.50301C8.63389 5.39897 8.74023 5.33325 8.85655 5.33325H10.3334C10.5175 5.33325 10.6667 5.48249 10.6667 5.66659C10.6667 5.85068 10.5175 5.99992 10.3334 5.99992H9.66675C9.48265 5.99992 9.33341 6.14916 9.33341 6.33325C9.33341 6.51735 9.48265 6.66659 9.66675 6.66659H10.3334C10.5175 6.66659 10.6667 6.81582 10.6667 6.99992V8.99992C10.6667 9.18401 10.5175 9.33325 10.3334 9.33325H9.66675C9.48265 9.33325 9.33341 9.18401 9.33341 8.99992V8.33325C9.33341 8.14916 9.48265 7.99992 9.66675 7.99992C9.85084 7.99992 10.0001 7.85068 10.0001 7.66659C10.0001 7.48249 9.85084 7.33325 9.66675 7.33325H9.00008C8.81599 7.33325 8.66675 7.48249 8.66675 7.66659V8.99992C8.66675 9.18401 8.51751 9.33325 8.33341 9.33325C8.14932 9.33325 8.00008 9.18401 8.00008 8.99992V8.33325C8.00008 8.14916 7.85084 7.99992 7.66675 7.99992C7.48265 7.99992 7.33341 8.14916 7.33341 8.33325V8.99992C7.33341 9.18401 7.18418 9.33325 7.00008 9.33325C6.81599 9.33325 6.66675 9.18401 6.66675 8.99992V8.13799Z" fill="white"/>
<path fill-rule="evenodd" clip-rule="evenodd" d="M17.3333 8.13799C17.3333 8.04958 17.3684 7.9648 17.4309 7.90229L17.7642 7.56895C17.8944 7.43878 17.8944 7.22772 17.7642 7.09755L17.4309 6.76422C17.3684 6.7017 17.3333 6.61692 17.3333 6.52851V5.66659C17.3333 5.48249 17.4825 5.33325 17.6666 5.33325H18.4119C18.5526 5.33325 18.6666 5.44726 18.6666 5.5879C18.6666 5.8566 19.0288 5.94211 19.149 5.70178L19.2484 5.50301C19.3004 5.39897 19.4067 5.33325 19.5231 5.33325H20.9999C21.184 5.33325 21.3333 5.48249 21.3333 5.66659C21.3333 5.85068 21.184 5.99992 20.9999 5.99992H20.3333C20.1492 5.99992 19.9999 6.14916 19.9999 6.33325C19.9999 6.51735 20.1492 6.66659 20.3333 6.66659H20.9999C21.184 6.66659 21.3333 6.81582 21.3333 6.99992V8.99992C21.3333 9.18401 21.184 9.33325 20.9999 9.33325H20.3333C20.1492 9.33325 19.9999 9.18401 19.9999 8.99992V8.33325C19.9999 8.14916 20.1492 7.99992 20.3333 7.99992C20.5173 7.99992 20.6666 7.85068 20.6666 7.66659C20.6666 7.48249 20.5173 7.33325 20.3333 7.33325H19.6666C19.4825 7.33325 19.3333 7.48249 19.3333 7.66659V8.99992C19.3333 9.18401 19.184 9.33325 18.9999 9.33325C18.8158 9.33325 18.6666 9.18401 18.6666 8.99992V8.33325C18.6666 8.14916 18.5173 7.99992 18.3333 7.99992C18.1492 7.99992 17.9999 8.14916 17.9999 8.33325V8.99992C17.9999 9.18401 17.8507 9.33325 17.6666 9.33325C17.4825 9.33325 17.3333 9.18401 17.3333 8.99992V8.13799Z" fill="white"/>
<path fill-rule="evenodd" clip-rule="evenodd" d="M16 6.33013C16 6.51595 15.8958 6.77075 15.7593 6.90727L15.574 7.09257C15.4411 7.22549 15.4375 7.43742 15.574 7.57393L15.7593 7.75924C15.8922 7.89216 16 8.14261 16 8.33637V8.9968C16 9.18262 15.8573 9.33325 15.6635 9.33325H15.0031C14.8173 9.33325 14.6667 9.19056 14.6667 8.9968V8.33637C14.6667 8.15056 14.6051 8.12297 14.512 8.30916L14.1546 9.02401C14.0692 9.1948 13.8431 9.33325 13.6697 9.33325H12.3303C12.1479 9.33325 12 9.17863 12 8.99992C12 8.81582 12.1427 8.66659 12.3365 8.66659H12.9969C13.1827 8.66659 13.3333 8.51196 13.3333 8.33325C13.3333 8.14916 13.1906 7.99992 12.9969 7.99992H12.3365C12.1506 7.99992 12 7.85655 12 7.67293V5.66024C12 5.47965 12.1427 5.33325 12.3365 5.33325H12.9969C13.1827 5.33325 13.3333 5.47594 13.3333 5.66971V6.33013C13.3333 6.51595 13.1787 6.66659 13 6.66659C12.8159 6.66659 12.6667 6.82121 12.6667 6.99992C12.6667 7.18401 12.8094 7.33325 13.0031 7.33325H13.6635C13.8494 7.33325 14 7.17632 14 7.00299V5.66351C14 5.48111 14.1546 5.33325 14.3333 5.33325C14.5174 5.33325 14.6667 5.47594 14.6667 5.66971V6.33013C14.6667 6.51595 14.8213 6.66659 15 6.66659C15.1841 6.66659 15.3333 6.5239 15.3333 6.33013V5.66971C15.3333 5.48389 15.488 5.33325 15.6667 5.33325C15.8508 5.33325 16 5.47594 16 5.66971V6.33013Z" fill="white"/>
</g>
</svg>
