<svg width="28" height="20" viewBox="0 0 28 20" fill="none" xmlns="http://www.w3.org/2000/svg">
<rect x="0.25" y="0.25" width="27.5" height="19.5" rx="1.75" fill="white" stroke="#F5F5F5" stroke-width="0.5"/>
<mask id="mask0" mask-type="alpha" maskUnits="userSpaceOnUse" x="0" y="0" width="28" height="20">
<rect x="0.25" y="0.25" width="27.5" height="19.5" rx="1.75" fill="white" stroke="white" stroke-width="0.5"/>
</mask>
<g mask="url(#mask0)">
<path fill-rule="evenodd" clip-rule="evenodd" d="M0 6.66667H28V0H0V6.66667Z" fill="#1B57C4"/>
<path fill-rule="evenodd" clip-rule="evenodd" d="M0 19.9999H28V13.3333H0V19.9999Z" fill="#1B57C4"/>
<path fill-rule="evenodd" clip-rule="evenodd" d="M12.3999 7.86646C11.7522 8.35297 11.3333 9.12753 11.3333 9.99994C11.3333 11.4727 12.5272 12.6666 13.9999 12.6666C15.4727 12.6666 16.6666 11.4727 16.6666 9.99994C16.6666 9.12753 16.2476 8.35297 15.6 7.86646L14.6666 10.6666H13.3333L12.3999 7.86646Z" fill="url(#paint0_linear)"/>
<path fill-rule="evenodd" clip-rule="evenodd" d="M13.9999 7.33325L14.6666 10.6666H13.3333L13.9999 7.33325Z" fill="#F9C92E"/>
</g>
<defs>
<linearGradient id="paint0_linear" x1="11.3333" y1="7.86646" x2="11.3333" y2="12.6666" gradientUnits="userSpaceOnUse">
<stop stop-color="#3C7839"/>
<stop offset="1" stop-color="#31642E"/>
</linearGradient>
</defs>
</svg>
