<svg width="1920" height="667" viewBox="0 0 1920 667" fill="none" xmlns="http://www.w3.org/2000/svg">
<mask id="mask0" mask-type="alpha" maskUnits="userSpaceOnUse" x="0" y="0" width="1920" height="667">
<rect width="1920" height="667" fill="#EDF7FF"/>
</mask>
<g mask="url(#mask0)">
<path d="M1078.21 -189.556C1043.4 -175.556 1010.41 -158.798 979.446 -137.815C956.105 -121.504 932.301 -102.898 917.858 -80.9746C881.807 -34.7502 840.354 -68.4076 832.033 -93.4827C826.089 -111.394 824.272 -126.086 886.851 -168.878C968.728 -224.498 1108.96 -320.896 1363.79 -298.707C1618.63 -276.518 1807.66 -62.7172 1837.79 -6.03052C1867.92 50.6562 2000.81 220.681 1789.2 560.097C1577.59 899.512 1090.27 758.397 1090.27 758.397L952.307 734.435C952.307 734.435 1028.44 650.438 1146.01 678.412C1263.58 706.387 1329.97 694.448 1329.97 694.448C1329.97 694.448 1499.56 684.666 1608.14 567.568C1716.73 450.471 1771.24 324.397 1713.5 110.77C1655.76 -102.856 1459.97 -202.454 1378.92 -212.569C1300.16 -222.222 1246.56 -233.494 1104.75 -198.06C1096.12 -195.5 1087.49 -192.941 1078.21 -189.556Z" fill="url(#paint0_linear)"/>
<path d="M1889.03 118.899C1887.17 112.338 1897.49 107.669 1900.14 113.955C1920.85 163.127 1938.22 218.902 1941.62 272.75C1950.97 420.76 1948.01 577.751 1787.07 784.11C1626.13 990.468 1326.03 1036.53 1211.94 1012.6C1089.95 997.102 915.556 961.982 913.435 830.232C911.315 698.482 1075.7 664.731 1128.46 687.294C1177.87 708.425 1214.66 717.381 1219.13 718.432C1219.44 718.505 1219.71 718.572 1220.01 718.653C1229.42 721.175 1393.42 764.136 1501.53 724.697C1571.34 698.165 1614.6 680.136 1672.13 638.714C1717.34 606.273 1763.76 565.479 1811.32 497.695C1938.25 317.916 1898.26 151.32 1889.03 118.899V118.899Z" fill="url(#paint1_linear)"/>
<path d="M959.518 762.631L963.38 757.679C1013.86 701.466 1088.7 685.499 1158.54 713.41C1273.24 760.385 1468.99 817.475 1690.47 654.348C1911.95 491.22 1989.35 206.436 1829.81 -16.2306C1832.47 -12.8301 1834.3 -10.0733 1836.96 -6.67283C1830.45 -17.056 1823.3 -26.6137 1816.15 -36.1714C1974.87 185.852 1898.29 471.279 1676.82 634.407C1455.34 797.534 1258.11 740.626 1144.88 693.469C1075.7 664.733 999.38 680.882 949.727 737.738L945.865 742.691C901.362 792.943 904.205 864.192 943.712 912.261C917.791 865.495 920.809 805.455 959.518 762.631Z" fill="url(#paint2_linear)"/>
</g>
<defs>
<linearGradient id="paint0_linear" x1="1371.45" y1="-176.061" x2="1354.3" y2="984.141" gradientUnits="userSpaceOnUse">
<stop stop-color="#9B3DB4"/>
<stop offset="0.9993" stop-color="#00E6FF"/>
</linearGradient>
<linearGradient id="paint1_linear" x1="1924.78" y1="45.9816" x2="1133.11" y2="1061.06" gradientUnits="userSpaceOnUse">
<stop stop-color="#FF9D00"/>
<stop offset="0.9993" stop-color="#FF55E1"/>
</linearGradient>
<linearGradient id="paint2_linear" x1="1958.38" y1="169.294" x2="922.126" y2="881.206" gradientUnits="userSpaceOnUse">
<stop stop-color="#8927B5"/>
<stop offset="1" stop-color="#8786FC" stop-opacity="0"/>
</linearGradient>
</defs>
</svg>
