<svg width="1920" height="560" viewBox="0 0 1920 560" fill="none" xmlns="http://www.w3.org/2000/svg">
<mask id="mask0" mask-type="alpha" maskUnits="userSpaceOnUse" x="0" y="0" width="1920" height="560">
<rect width="1920" height="560" fill="#EDF7FF"/>
</mask>
<g mask="url(#mask0)">
<path d="M1078.21 -296.556C1043.4 -282.556 1010.41 -265.798 979.446 -244.815C956.105 -228.504 932.301 -209.898 917.858 -187.975C881.807 -141.75 840.354 -175.408 832.033 -200.483C826.089 -218.394 824.272 -233.086 886.851 -275.878C968.728 -331.498 1108.96 -427.896 1363.79 -405.707C1618.63 -383.518 1807.66 -169.717 1837.79 -113.031C1867.92 -56.3438 2000.81 113.681 1789.2 453.097C1577.59 792.512 1090.27 651.397 1090.27 651.397L952.307 627.435C952.307 627.435 1028.44 543.438 1146.01 571.412C1263.58 599.387 1329.97 587.448 1329.97 587.448C1329.97 587.448 1499.56 577.666 1608.14 460.568C1716.73 343.471 1771.24 217.397 1713.5 3.77037C1655.76 -209.856 1459.97 -309.454 1378.92 -319.569C1300.16 -329.222 1246.56 -340.494 1104.75 -305.06C1096.12 -302.5 1087.49 -299.941 1078.21 -296.556Z" fill="url(#paint0_linear)"/>
<path d="M1889.03 11.8986C1887.17 5.33771 1897.49 0.668651 1900.14 6.95522C1920.85 56.1271 1938.22 111.902 1941.62 165.75C1950.97 313.76 1948.01 470.751 1787.07 677.11C1626.13 883.468 1326.03 929.526 1211.94 905.596C1089.95 890.102 915.556 854.982 913.435 723.232C911.315 591.482 1075.7 557.731 1128.46 580.294C1177.87 601.425 1214.66 610.381 1219.13 611.432C1219.44 611.505 1219.71 611.572 1220.01 611.653C1229.42 614.175 1393.42 657.136 1501.53 617.697C1571.34 591.165 1614.6 573.136 1672.13 531.714C1717.34 499.273 1763.76 458.479 1811.32 390.695C1938.25 210.916 1898.26 44.3198 1889.03 11.8986Z" fill="url(#paint1_linear)"/>
<path d="M959.518 655.631L963.38 650.679C1013.86 594.466 1088.7 578.499 1158.54 606.41C1273.24 653.385 1468.99 710.475 1690.47 547.348C1911.95 384.22 1989.35 99.4365 1829.81 -123.231C1832.47 -119.83 1834.3 -117.073 1836.96 -113.673C1830.45 -124.056 1823.3 -133.614 1816.15 -143.171C1974.87 78.8519 1898.29 364.279 1676.82 527.407C1455.34 690.534 1258.11 633.626 1144.88 586.469C1075.7 557.733 999.38 573.882 949.727 630.738L945.865 635.691C901.362 685.943 904.205 757.192 943.712 805.261C917.791 758.495 920.809 698.455 959.518 655.631Z" fill="url(#paint2_linear)"/>
</g>
<defs>
<linearGradient id="paint0_linear" x1="1371.45" y1="-283.061" x2="1354.3" y2="877.141" gradientUnits="userSpaceOnUse">
<stop stop-color="#9B3DB4"/>
<stop offset="0.9993" stop-color="#00E6FF"/>
</linearGradient>
<linearGradient id="paint1_linear" x1="1924.78" y1="-61.0184" x2="1133.11" y2="954.058" gradientUnits="userSpaceOnUse">
<stop stop-color="#FF9D00"/>
<stop offset="0.9993" stop-color="#FF55E1"/>
</linearGradient>
<linearGradient id="paint2_linear" x1="1958.38" y1="62.2938" x2="922.126" y2="774.206" gradientUnits="userSpaceOnUse">
<stop stop-color="#8927B5"/>
<stop offset="1" stop-color="#8786FC" stop-opacity="0"/>
</linearGradient>
</defs>
</svg>
