<svg width="262" height="113" viewBox="0 0 262 113" fill="none" xmlns="http://www.w3.org/2000/svg">
<path d="M58.8032 110.43H55.7137L55.0799 111.856H54.2085L56.8227 106.073H57.6149L60.2291 111.856H59.3577L58.8032 110.43ZM58.5655 109.717L57.298 106.865L56.0305 109.717H58.5655Z" fill="#B9B9B9"/>
<path d="M69.2603 106.073V111.856H68.5474L65.0617 107.499V111.856H64.2695V106.073H64.9825L68.4681 110.43V106.073H69.2603Z" fill="#B9B9B9"/>
<path d="M75.6766 111.143V111.856H71.478V106.073H75.5974V106.786H72.3494V108.608H75.2805V109.321H72.3494V111.222H75.6766V111.143Z" fill="#B9B9B9"/>
<path d="M85.5794 106.073L83.599 111.856H82.8068L81.2224 107.182L79.638 111.856H78.7666L76.7861 106.073H77.6575L79.2419 110.826L80.9055 106.073H81.6977L83.2821 110.826L84.8665 106.073H85.5794Z" fill="#B9B9B9"/>
<path d="M89.7778 106.073H92.2336C92.8674 106.073 93.4219 106.232 93.8972 106.469C94.3725 106.707 94.7686 107.024 95.0063 107.499C95.2439 107.975 95.4024 108.45 95.4024 109.004C95.4024 109.559 95.2439 110.113 95.0063 110.51C94.7686 110.985 94.3725 111.302 93.8972 111.539C93.4219 111.777 92.8674 111.935 92.2336 111.935H89.7778V106.073ZM92.2336 111.143C92.7089 111.143 93.105 111.064 93.5011 110.906C93.8972 110.747 94.1349 110.43 94.2933 110.113C94.4517 109.797 94.6102 109.4 94.6102 109.004C94.6102 108.608 94.531 108.212 94.2933 107.895C94.1349 107.578 93.818 107.341 93.5011 107.103C93.105 106.945 92.7089 106.865 92.2336 106.865H90.6492V111.222H92.2336V111.143Z" fill="#B9B9B9"/>
<path d="M97.0659 106.073H97.8581V111.856H97.0659V106.073Z" fill="#B9B9B9"/>
<path d="M105.463 111.856V107.578L103.324 111.143H102.928L100.789 107.658V111.856H99.9971V106.073H100.71L103.166 110.193L105.542 106.073H106.255V111.856H105.463Z" fill="#B9B9B9"/>
<path d="M112.672 111.143V111.856H108.474V106.073H112.593V106.786H109.345V108.608H112.276V109.321H109.345V111.222H112.672V111.143Z" fill="#B9B9B9"/>
<path d="M119.406 106.073V111.856H118.693L115.207 107.499V111.856H114.415V106.073H115.128L118.614 110.43V106.073H119.406Z" fill="#B9B9B9"/>
<path d="M122.02 111.698C121.624 111.539 121.307 111.381 121.069 111.143L121.386 110.509C121.624 110.747 121.862 110.905 122.258 110.985C122.574 111.143 122.971 111.143 123.287 111.143C123.763 111.143 124.159 111.064 124.397 110.905C124.634 110.747 124.793 110.509 124.793 110.272C124.793 110.034 124.713 109.876 124.634 109.796C124.476 109.638 124.317 109.559 124.159 109.48C124 109.4 123.684 109.321 123.367 109.242C122.891 109.163 122.574 109.004 122.337 108.925C122.099 108.846 121.862 108.687 121.624 108.45C121.465 108.212 121.307 107.974 121.307 107.578C121.307 107.261 121.386 107.024 121.545 106.707C121.703 106.469 121.941 106.232 122.258 106.073C122.574 105.915 122.971 105.835 123.525 105.835C123.842 105.835 124.238 105.915 124.555 105.994C124.872 106.073 125.189 106.232 125.426 106.39L125.189 107.024C124.951 106.865 124.713 106.786 124.397 106.707C124.08 106.628 123.842 106.548 123.604 106.548C123.129 106.548 122.812 106.628 122.574 106.786C122.337 106.945 122.258 107.182 122.258 107.42C122.258 107.657 122.337 107.816 122.495 107.895C122.654 108.054 122.812 108.133 122.971 108.212C123.129 108.291 123.446 108.37 123.763 108.45C124.238 108.529 124.555 108.687 124.793 108.767C125.03 108.846 125.268 109.004 125.506 109.242C125.664 109.48 125.822 109.717 125.822 110.113C125.822 110.43 125.743 110.668 125.585 110.985C125.426 111.302 125.189 111.46 124.793 111.618C124.397 111.777 124 111.856 123.525 111.856C122.891 111.935 122.416 111.856 122.02 111.698Z" fill="#B9B9B9"/>
<path d="M127.169 106.073H127.961V111.856H127.169V106.073Z" fill="#B9B9B9"/>
<path d="M131.209 111.539C130.734 111.302 130.338 110.906 130.1 110.51C129.863 110.034 129.704 109.559 129.704 109.004C129.704 108.45 129.863 107.975 130.1 107.499C130.338 107.024 130.734 106.707 131.209 106.469C131.685 106.232 132.239 106.073 132.794 106.073C133.348 106.073 133.903 106.232 134.378 106.469C134.853 106.707 135.249 107.103 135.487 107.499C135.725 107.975 135.883 108.45 135.883 109.004C135.883 109.559 135.725 110.113 135.487 110.51C135.249 110.985 134.853 111.302 134.378 111.539C133.903 111.777 133.348 111.935 132.794 111.935C132.239 111.935 131.685 111.777 131.209 111.539ZM133.982 110.906C134.299 110.747 134.616 110.43 134.774 110.113C134.933 109.797 135.091 109.4 135.091 109.004C135.091 108.608 135.012 108.212 134.774 107.895C134.616 107.578 134.299 107.262 133.982 107.103C133.665 106.945 133.269 106.786 132.794 106.786C132.398 106.786 132.001 106.865 131.605 107.103C131.209 107.341 130.972 107.578 130.813 107.895C130.655 108.212 130.496 108.608 130.496 109.004C130.496 109.4 130.576 109.797 130.813 110.113C130.972 110.43 131.288 110.747 131.605 110.906C131.922 111.064 132.318 111.222 132.794 111.222C133.19 111.222 133.586 111.064 133.982 110.906Z" fill="#B9B9B9"/>
<path d="M142.617 106.073V111.856H141.904L138.418 107.499V111.856H137.626V106.073H138.339L141.825 110.43V106.073H142.617Z" fill="#B9B9B9"/>
<path d="M148.479 111.539C148.004 111.302 147.608 110.906 147.37 110.51C147.133 110.034 146.974 109.559 146.974 109.004C146.974 108.45 147.133 107.975 147.37 107.499C147.608 107.024 148.004 106.707 148.479 106.469C148.955 106.232 149.509 106.073 150.064 106.073C150.618 106.073 151.173 106.232 151.648 106.469C152.123 106.707 152.519 107.103 152.757 107.499C152.995 107.975 153.153 108.45 153.153 109.004C153.153 109.559 152.995 110.113 152.757 110.51C152.519 110.985 152.123 111.302 151.648 111.539C151.173 111.777 150.618 111.935 150.064 111.935C149.43 111.935 148.875 111.777 148.479 111.539ZM151.173 110.906C151.49 110.747 151.806 110.43 151.965 110.113C152.123 109.797 152.282 109.4 152.282 109.004C152.282 108.608 152.203 108.212 151.965 107.895C151.806 107.578 151.49 107.262 151.173 107.103C150.856 106.945 150.46 106.786 149.984 106.786C149.588 106.786 149.192 106.865 148.796 107.103C148.4 107.341 148.162 107.578 148.004 107.895C147.846 108.212 147.687 108.608 147.687 109.004C147.687 109.4 147.766 109.797 148.004 110.113C148.162 110.43 148.479 110.747 148.796 110.906C149.113 111.064 149.509 111.222 149.984 111.222C150.46 111.222 150.856 111.064 151.173 110.906Z" fill="#B9B9B9"/>
<path d="M155.609 106.786V108.846H158.54V109.559H155.609V111.935H154.816V106.152H158.936V106.865H155.609V106.786Z" fill="#B9B9B9"/>
<path d="M167.175 108.925H167.967V111.222C167.65 111.46 167.333 111.619 166.937 111.777C166.541 111.935 166.145 111.935 165.749 111.935C165.194 111.935 164.64 111.777 164.164 111.539C163.689 111.302 163.293 110.906 163.055 110.51C162.818 110.034 162.659 109.559 162.659 109.004C162.659 108.45 162.818 107.895 163.055 107.499C163.293 107.024 163.689 106.707 164.164 106.469C164.64 106.232 165.194 106.073 165.749 106.073C166.224 106.073 166.62 106.152 167.016 106.311C167.412 106.469 167.729 106.707 167.967 106.945L167.412 107.499C166.937 107.024 166.382 106.786 165.749 106.786C165.273 106.786 164.877 106.865 164.56 107.103C164.244 107.262 163.927 107.578 163.768 107.895C163.531 108.212 163.451 108.608 163.451 109.084C163.451 109.48 163.531 109.876 163.768 110.193C164.006 110.51 164.244 110.826 164.56 110.985C164.877 111.143 165.273 111.302 165.749 111.302C166.303 111.302 166.699 111.143 167.095 110.906V108.925H167.175Z" fill="#B9B9B9"/>
<path d="M173.671 110.43H170.581L169.948 111.856H169.076L171.69 106.073H172.483L175.097 111.856H174.225L173.671 110.43ZM173.433 109.717L172.166 106.865L170.898 109.717H173.433Z" fill="#B9B9B9"/>
<path d="M181.909 111.856V107.578L179.771 111.143H179.374L177.236 107.658V111.856H176.443V106.073H177.156L179.612 110.193L181.989 106.073H182.702V111.856H181.909Z" fill="#B9B9B9"/>
<path d="M184.84 106.073H185.633V111.856H184.84V106.073Z" fill="#B9B9B9"/>
<path d="M188.643 106.786V108.846H191.574V109.559H188.643V111.935H187.851V106.152H191.97V106.865H188.643V106.786Z" fill="#B9B9B9"/>
<path d="M193.555 106.073H194.347V111.856H193.555V106.073Z" fill="#B9B9B9"/>
<path d="M197.595 111.539C197.12 111.302 196.724 110.906 196.486 110.51C196.248 110.113 196.09 109.559 196.09 109.004C196.09 108.45 196.248 107.895 196.486 107.499C196.724 107.103 197.12 106.707 197.595 106.469C198.07 106.232 198.625 106.073 199.179 106.073C199.655 106.073 200.051 106.152 200.447 106.311C200.843 106.469 201.16 106.707 201.398 107.024L200.843 107.578C200.368 107.103 199.892 106.865 199.179 106.865C198.783 106.865 198.387 106.945 197.991 107.182C197.595 107.42 197.357 107.658 197.199 107.974C197.04 108.291 196.882 108.687 196.882 109.084C196.882 109.48 196.961 109.876 197.199 110.193C197.357 110.51 197.674 110.826 197.991 110.985C198.308 111.143 198.704 111.302 199.179 111.302C199.813 111.302 200.368 111.064 200.843 110.589L201.398 111.143C201.16 111.46 200.843 111.698 200.447 111.856C200.051 112.015 199.655 112.094 199.179 112.094C198.546 111.935 198.07 111.777 197.595 111.539Z" fill="#B9B9B9"/>
<path d="M206.546 110.43H203.457L202.823 111.856H201.952L204.566 106.073H205.358L207.972 111.856H207.18L206.546 110.43ZM206.229 109.717L204.962 106.865L203.694 109.717H206.229Z" fill="#B9B9B9"/>
<path d="M210.19 106.786H208.21V106.073H213.042V106.786H211.062V111.856H210.27V106.786H210.19Z" fill="#B9B9B9"/>
<path d="M214.31 106.073H215.102V111.856H214.31V106.073Z" fill="#B9B9B9"/>
<path d="M218.35 111.539C217.875 111.302 217.479 110.906 217.241 110.51C217.004 110.034 216.845 109.559 216.845 109.004C216.845 108.45 217.004 107.975 217.241 107.499C217.479 107.024 217.875 106.707 218.35 106.469C218.826 106.232 219.38 106.073 219.935 106.073C220.489 106.073 221.044 106.232 221.519 106.469C221.994 106.707 222.391 107.103 222.628 107.499C222.866 107.975 223.024 108.45 223.024 109.004C223.024 109.559 222.866 110.113 222.628 110.51C222.391 110.985 221.994 111.302 221.519 111.539C221.044 111.777 220.489 111.935 219.935 111.935C219.38 111.935 218.826 111.777 218.35 111.539ZM221.123 110.906C221.44 110.747 221.757 110.43 221.915 110.113C222.074 109.797 222.232 109.4 222.232 109.004C222.232 108.608 222.153 108.212 221.915 107.895C221.757 107.578 221.44 107.262 221.123 107.103C220.806 106.945 220.41 106.786 219.935 106.786C219.539 106.786 219.143 106.865 218.746 107.103C218.35 107.341 218.113 107.578 217.954 107.895C217.796 108.212 217.637 108.608 217.637 109.004C217.637 109.4 217.717 109.797 217.954 110.113C218.113 110.43 218.43 110.747 218.746 110.906C219.063 111.064 219.459 111.222 219.935 111.222C220.41 111.222 220.806 111.064 221.123 110.906Z" fill="#B9B9B9"/>
<path d="M229.758 106.073V111.856H229.045L225.559 107.499V111.856H224.767V106.073H225.48L228.966 110.43V106.073H229.758Z" fill="#B9B9B9"/>
<path d="M234.59 106.073H235.383V111.143H238.551V111.856H234.59V106.073Z" fill="#B9B9B9"/>
<path d="M244.176 111.143V111.856H239.977V106.073H244.096V106.786H240.848V108.608H243.78V109.321H240.848V111.222H244.176V111.143Z" fill="#B9B9B9"/>
<path d="M250.909 106.073L248.374 111.856H247.582L245.047 106.073H245.918L247.978 110.826L250.117 106.073H250.909Z" fill="#B9B9B9"/>
<path d="M256.296 111.143V111.856H252.098V106.073H256.217V106.786H252.969V108.608H255.9V109.321H252.969V111.222H256.296V111.143Z" fill="#B9B9B9"/>
<path d="M258.039 106.073H258.831V111.143H262V111.856H258.039V106.073Z" fill="#B9B9B9"/>
<path d="M76.073 63.6121C78.3703 65.5134 79.4794 68.1276 79.4794 71.3756C79.4794 74.7028 78.3703 77.317 76.073 79.1391C73.7756 81.0403 70.6861 81.9909 66.7251 81.9909H59.1993V91.2596H54.8423V60.7603H66.7251C70.6861 60.7603 73.8548 61.7109 76.073 63.6121ZM72.9834 76.4456C74.4094 75.2573 75.2016 73.5937 75.2016 71.3756C75.2016 69.1575 74.4886 67.4939 72.9834 66.3056C71.5575 65.1173 69.4186 64.5628 66.6459 64.5628H59.1993V78.2677H66.6459C69.4186 78.2677 71.4783 77.6339 72.9834 76.4456Z" fill="#1E115F"/>
<path d="M85.7378 58.938H89.9364V91.2593H85.7378V58.938Z" fill="#1E115F"/>
<path d="M113.623 70.3457C115.286 71.9301 116.158 74.2275 116.158 77.3962V91.3388H112.197V88.2492C111.484 89.3583 110.533 90.1505 109.186 90.705C107.919 91.2595 106.334 91.5764 104.592 91.5764C101.977 91.5764 99.9177 90.9427 98.4126 89.6752C96.8282 88.4077 96.1152 86.8233 96.1152 84.7636C96.1152 82.7039 96.8282 81.1195 98.3334 79.852C99.8385 78.5845 102.136 78.03 105.384 78.03H112.038V77.2378C112.038 75.4157 111.484 74.069 110.454 73.1184C109.424 72.1678 107.84 71.6925 105.859 71.6925C104.512 71.6925 103.166 71.9301 101.819 72.4054C100.551 72.8807 99.4424 73.4353 98.4918 74.2275L96.749 71.0587C97.9373 70.1081 99.3632 69.3951 101.027 68.8406C102.69 68.3653 104.433 68.0484 106.334 68.0484C109.503 67.9692 111.959 68.7614 113.623 70.3457ZM109.424 87.2194C110.612 86.5064 111.404 85.4766 111.959 84.2091V80.9611H105.542C101.977 80.9611 100.235 82.1494 100.235 84.5259C100.235 85.7142 100.71 86.5856 101.581 87.2986C102.453 87.9323 103.72 88.3284 105.305 88.3284C106.889 88.3284 108.315 87.9324 109.424 87.2194Z" fill="#1E115F"/>
<path d="M143.963 68.2067L132.714 93.5567C131.764 95.9333 130.575 97.5969 129.229 98.5475C127.882 99.4982 126.298 99.9735 124.476 99.9735C123.367 99.9735 122.257 99.815 121.148 99.4189C120.119 99.0228 119.247 98.5475 118.534 97.8346L120.356 94.6658C121.544 95.7749 122.891 96.3294 124.476 96.3294C125.505 96.3294 126.377 96.0917 127.011 95.5372C127.724 94.9827 128.278 94.1113 128.833 92.7645L129.546 91.1802L119.326 68.1274H123.683L131.764 86.5855L139.765 68.1274H143.963V68.2067Z" fill="#1E115F"/>
<path d="M161.471 89.9128C160.837 90.4674 160.124 90.8635 159.174 91.1011C158.302 91.3388 157.352 91.4972 156.401 91.4972C154.104 91.4972 152.282 90.8635 151.014 89.596C149.747 88.3285 149.113 86.5856 149.113 84.2091V71.534H145.152V68.1276H149.113V63.0576H153.311V68.1276H159.966V71.534H153.311V84.0506C153.311 85.3181 153.628 86.2688 154.262 86.9025C154.896 87.5363 155.767 87.9324 156.955 87.9324C158.223 87.9324 159.332 87.5363 160.203 86.8233L161.471 89.9128Z" fill="#1E115F"/>
<path d="M185.87 70.504C187.613 72.1676 188.485 74.7026 188.485 77.9505V91.2593H184.286V78.4259C184.286 76.2077 183.732 74.4649 182.702 73.3559C181.593 72.2468 180.087 71.6922 178.107 71.6922C175.81 71.6922 174.067 72.326 172.72 73.6727C171.453 75.0194 170.74 76.9207 170.74 79.3765V91.2593H166.541V58.938H170.74V71.4546C171.611 70.3455 172.72 69.4741 174.146 68.9196C175.572 68.2858 177.156 67.969 178.899 67.969C181.83 67.969 184.128 68.8404 185.87 70.504Z" fill="#1E115F"/>
<path d="M217.162 81.1191H198.387C198.625 83.1788 199.575 84.7632 201.081 86.0307C202.586 87.2982 204.487 87.8527 206.784 87.8527C209.557 87.8527 211.775 86.9021 213.439 85.08L215.736 87.7735C214.706 88.9618 213.359 89.9124 211.854 90.5462C210.27 91.1799 208.527 91.4968 206.626 91.4968C204.17 91.4968 202.031 91.0215 200.13 89.9916C198.229 88.9618 196.803 87.6151 195.773 85.793C194.743 83.971 194.188 81.9905 194.188 79.6932C194.188 77.475 194.664 75.4153 195.694 73.6725C196.723 71.8505 198.07 70.5038 199.813 69.4739C201.556 68.4441 203.536 67.9688 205.754 67.9688C207.973 67.9688 209.953 68.4441 211.696 69.4739C213.439 70.5038 214.785 71.8505 215.736 73.6725C216.687 75.4945 217.162 77.5542 217.162 79.8516C217.241 80.1685 217.162 80.5646 217.162 81.1191ZM200.764 73.3556C199.417 74.5439 198.625 76.2075 198.387 78.188H213.201C212.963 76.2075 212.171 74.6231 210.824 73.4349C209.478 72.1674 207.814 71.6128 205.754 71.6128C203.774 71.5336 202.11 72.0881 200.764 73.3556Z" fill="#1E115F"/>
<path d="M258.831 70.5042C260.495 72.1678 261.366 74.7028 261.366 78.03V91.3388H257.168V78.5053C257.168 76.2872 256.613 74.5444 255.583 73.4353C254.554 72.3262 253.048 71.7717 251.147 71.7717C249.008 71.7717 247.345 72.4055 246.077 73.7522C244.81 75.0989 244.176 77.0002 244.176 79.456V91.3388H239.977V78.5053C239.977 76.2872 239.423 74.5444 238.393 73.4353C237.363 72.3262 235.858 71.7717 233.957 71.7717C231.818 71.7717 230.154 72.4055 228.887 73.7522C227.619 75.0989 226.985 77.0002 226.985 79.456V91.3388H223.024V68.2861H227.065V71.6925C227.936 70.5042 229.045 69.6328 230.392 68.9991C231.738 68.3653 233.323 68.0484 235.066 68.0484C236.888 68.0484 238.472 68.4445 239.819 69.1575C241.245 69.8705 242.275 70.9795 243.067 72.3263C243.938 70.9795 245.127 69.9497 246.711 69.1575C248.295 68.3653 250.038 68.0484 251.939 68.0484C254.791 67.9692 257.089 68.8406 258.831 70.5042Z" fill="#1E115F"/>
<path d="M26.7989 87.6153C29.2546 89.0412 31.7897 90.2295 34.4831 91.1009C36.5428 91.7346 38.7609 92.2892 40.7414 92.1307C45.1777 92.1307 45.0984 96.1709 43.9894 97.8345C43.1972 99.0228 42.405 99.815 36.9389 98.0722C29.8092 95.7748 17.5302 91.8931 6.99412 75.6532C-3.54201 59.4133 0.418941 38.1826 2.39942 33.7464C4.37989 29.3101 8.34084 13.4663 38.444 10.2975C68.5473 7.12878 82.8067 42.7773 82.8067 42.7773L87.7975 52.1252C87.7975 52.1252 79.2418 51.4914 75.4393 43.1734C71.6368 34.8554 67.8343 31.449 67.8343 31.449C67.8343 31.449 59.3579 21.7843 47.3166 20.7544C35.2753 19.7246 25.2145 22.3388 15.1537 35.7268C5.09286 49.1148 8.26162 65.4339 11.4304 70.7416C14.5199 75.8909 16.342 79.6141 25.056 86.427C25.6106 86.8231 26.1651 87.2192 26.7989 87.6153Z" fill="url(#paint0_linear)"/>
<path d="M7.46937 24.8738C7.16478 25.2906 6.40554 24.8916 6.65744 24.441C8.62768 20.9164 11.148 17.2845 14.203 14.5753C22.6002 7.12873 32.1065 -0.000976562 51.9112 -0.000976562C71.716 -0.000976562 88.4312 15.7636 92.3129 23.6855C97.066 31.6866 103.087 43.7279 95.3232 49.9862C87.5598 56.2445 77.895 48.0057 76.786 43.8071C75.9375 40.5949 74.9962 38.2638 74.6008 37.3457C74.476 37.056 74.3522 36.7769 74.2241 36.4887C73.2405 34.2747 68.4191 24.0313 61.6551 19.8038C56.8228 16.8727 53.7333 15.1298 48.584 13.6247C44.5438 12.4364 39.9492 11.565 33.6908 11.8819C17.0549 12.6741 8.97453 22.8141 7.46937 24.8738Z" fill="url(#paint1_linear)"/>
<path d="M89.1444 50.3822H88.6691C82.9653 49.9861 78.529 46.2628 76.9447 40.7967C74.4097 31.7657 68.7059 17.4271 48.6635 11.8025C28.6211 6.17797 8.02416 14.8128 2.16195 34.6968C2.24117 34.3799 2.32039 34.1423 2.39961 33.8254C2.08274 34.6968 1.84508 35.5682 1.60742 36.4396C7.46963 16.6349 28.0666 7.9208 48.109 13.5453C68.1514 19.1699 73.9343 33.5877 76.3901 42.5395C77.8953 48.0056 82.4108 51.8081 88.1145 52.125H88.5899C93.6599 52.4419 97.7793 48.9562 98.8091 44.3615C97.2247 48.0848 93.5014 50.699 89.1444 50.3822Z" fill="url(#paint2_linear)"/>
<defs>
<linearGradient id="paint0_linear" x1="13.9564" y1="69.4881" x2="83.9894" y2="16.5147" gradientUnits="userSpaceOnUse">
<stop stop-color="#9B3DB4"/>
<stop offset="0.9993" stop-color="#00E6FF"/>
</linearGradient>
<linearGradient id="paint1_linear" x1="1.45451" y1="26.1344" x2="98.8738" y2="26.1344" gradientUnits="userSpaceOnUse">
<stop stop-color="#FF9D00"/>
<stop offset="0.9993" stop-color="#FF55E1"/>
</linearGradient>
<linearGradient id="paint2_linear" x1="7.24905" y1="18.3896" x2="97.9605" y2="47.0949" gradientUnits="userSpaceOnUse">
<stop stop-color="#8927B5"/>
<stop offset="1" stop-color="#8786FC" stop-opacity="0"/>
</linearGradient>
</defs>
</svg>
